{
	"patcher" : 	{
		"fileversion" : 1,
		"appversion" : 		{
			"major" : 7,
			"minor" : 3,
			"revision" : 6,
			"architecture" : "x86",
			"modernui" : 1
		}
,
		"rect" : [ 34.0, 79.0, 1190.0, 787.0 ],
		"bglocked" : 0,
		"openinpresentation" : 1,
		"default_fontsize" : 12.0,
		"default_fontface" : 0,
		"default_fontname" : "Arial",
		"gridonopen" : 1,
		"gridsize" : [ 15.0, 15.0 ],
		"gridsnaponopen" : 1,
		"objectsnaponopen" : 1,
		"statusbarvisible" : 2,
		"toolbarvisible" : 1,
		"lefttoolbarpinned" : 0,
		"toptoolbarpinned" : 0,
		"righttoolbarpinned" : 0,
		"bottomtoolbarpinned" : 0,
		"toolbars_unpinned_last_save" : 0,
		"tallnewobj" : 0,
		"boxanimatetime" : 200,
		"enablehscroll" : 1,
		"enablevscroll" : 1,
		"devicewidth" : 0.0,
		"description" : "",
		"digest" : "",
		"tags" : "",
		"style" : "default",
		"subpatcher_template" : "",
		"boxes" : [ 			{
				"box" : 				{
					"bubbleside" : 0,
					"id" : "obj-38",
					"linecount" : 2,
					"maxclass" : "comment",
					"numinlets" : 1,
					"numoutlets" : 0,
					"patching_rect" : [ 186.566559, 277.333313, 193.399994, 32.0 ],
					"style" : "",
					"text" : "開館時刻になったら，1番に保存されたパターンを呼び出す．"
				}

			}
, 			{
				"box" : 				{
					"id" : "obj-37",
					"maxclass" : "message",
					"numinlets" : 2,
					"numoutlets" : 1,
					"outlettype" : [ "" ],
					"patching_rect" : [ 276.966553, 390.333313, 29.5, 22.0 ],
					"style" : "",
					"text" : "1"
				}

			}
, 			{
				"box" : 				{
					"id" : "obj-27",
					"maxclass" : "button",
					"numinlets" : 1,
					"numoutlets" : 1,
					"outlettype" : [ "bang" ],
					"patching_rect" : [ 276.966553, 351.333313, 24.0, 24.0 ],
					"style" : ""
				}

			}
, 			{
				"box" : 				{
					"id" : "obj-8",
					"maxclass" : "newobj",
					"numinlets" : 0,
					"numoutlets" : 1,
					"outlettype" : [ "" ],
					"patching_rect" : [ 276.966553, 318.166626, 93.0, 22.0 ],
					"style" : "",
					"text" : "r startExhibition"
				}

			}
, 			{
				"box" : 				{
					"id" : "obj-40",
					"maxclass" : "newobj",
					"numinlets" : 2,
					"numoutlets" : 1,
					"outlettype" : [ "bang" ],
					"patching_rect" : [ 393.5, 318.166626, 76.0, 22.0 ],
					"style" : "",
					"text" : "delay 20000"
				}

			}
, 			{
				"box" : 				{
					"bubbleside" : 3,
					"id" : "obj-50",
					"linecount" : 3,
					"maxclass" : "comment",
					"numinlets" : 1,
					"numoutlets" : 0,
					"patching_rect" : [ 393.5, 351.333313, 224.800003, 45.0 ],
					"style" : "",
					"text" : "アプリ起動直後，値がロードされても，通信の準備が整っていないとArduinoに送られないので，明示的に再送する．"
				}

			}
, 			{
				"box" : 				{
					"id" : "obj-18",
					"maxclass" : "button",
					"numinlets" : 1,
					"numoutlets" : 1,
					"outlettype" : [ "bang" ],
					"patching_rect" : [ 701.0, 258.333313, 24.0, 24.0 ],
					"style" : ""
				}

			}
, 			{
				"box" : 				{
					"id" : "obj-33",
					"maxclass" : "message",
					"numinlets" : 2,
					"numoutlets" : 1,
					"outlettype" : [ "" ],
					"patching_rect" : [ 402.0, 1093.5, 37.0, 22.0 ],
					"style" : "",
					"text" : "clear"
				}

			}
, 			{
				"box" : 				{
					"bubble" : 1,
					"bubbleside" : 2,
					"fontface" : 1,
					"fontsize" : 18.0,
					"id" : "obj-78",
					"maxclass" : "comment",
					"numinlets" : 1,
					"numoutlets" : 0,
					"patching_rect" : [ 24.433121, 973.466675, 162.5, 46.0 ],
					"presentation" : 1,
					"presentation_rect" : [ 1262.524902, 554.023438, 150.5, 46.0 ],
					"style" : "",
					"text" : "デバッグ",
					"textjustification" : 1
				}

			}
, 			{
				"box" : 				{
					"bubble" : 1,
					"bubbleside" : 2,
					"fontface" : 1,
					"fontsize" : 18.0,
					"id" : "obj-76",
					"maxclass" : "comment",
					"numinlets" : 1,
					"numoutlets" : 0,
					"patching_rect" : [ 24.433121, 199.333313, 162.5, 46.0 ],
					"presentation" : 1,
					"presentation_rect" : [ 1265.016602, 68.023407, 150.5, 46.0 ],
					"style" : "",
					"text" : "パラメータ保存",
					"textjustification" : 1
				}

			}
, 			{
				"box" : 				{
					"bubble" : 1,
					"id" : "obj-75",
					"maxclass" : "comment",
					"numinlets" : 1,
					"numoutlets" : 0,
					"patching_rect" : [ 136.166626, 1057.5, 208.0, 24.0 ],
					"presentation" : 1,
					"presentation_linecount" : 2,
					"presentation_rect" : [ 1296.916626, 623.333313, 192.600006, 36.0 ],
					"style" : "",
					"text" : "使用可能なポートの一覧を取得．"
				}

			}
, 			{
				"box" : 				{
					"id" : "obj-61",
					"maxclass" : "newobj",
					"numinlets" : 2,
					"numoutlets" : 1,
					"outlettype" : [ "bang" ],
					"patching_rect" : [ 275.0, 1128.5, 63.0, 22.0 ],
					"style" : "",
					"text" : "delay 500"
				}

			}
, 			{
				"box" : 				{
					"id" : "obj-62",
					"maxclass" : "button",
					"numinlets" : 1,
					"numoutlets" : 1,
					"outlettype" : [ "bang" ],
					"patching_rect" : [ 349.0, 1057.5, 24.0, 24.0 ],
					"presentation" : 1,
					"presentation_rect" : [ 1265.016602, 629.333313, 24.0, 24.0 ],
					"style" : ""
				}

			}
, 			{
				"box" : 				{
					"id" : "obj-67",
					"maxclass" : "message",
					"numinlets" : 2,
					"numoutlets" : 1,
					"outlettype" : [ "" ],
					"patching_rect" : [ 275.0, 1161.5, 34.0, 22.0 ],
					"style" : "",
					"text" : "print"
				}

			}
, 			{
				"box" : 				{
					"id" : "obj-68",
					"maxclass" : "newobj",
					"numinlets" : 1,
					"numoutlets" : 1,
					"outlettype" : [ "" ],
					"patching_rect" : [ 420.0, 1161.5, 82.0, 22.0 ],
					"style" : "",
					"text" : "prepend port"
				}

			}
, 			{
				"box" : 				{
					"id" : "obj-69",
					"maxclass" : "message",
					"numinlets" : 2,
					"numoutlets" : 1,
					"outlettype" : [ "" ],
					"patching_rect" : [ 349.0, 1093.5, 37.0, 22.0 ],
					"style" : "",
					"text" : "clear"
				}

			}
, 			{
				"box" : 				{
					"id" : "obj-70",
					"items" : [ "Bluetooth-Incoming-Port", ",", "usbmodem14101" ],
					"maxclass" : "umenu",
					"numinlets" : 1,
					"numoutlets" : 3,
					"outlettype" : [ "int", "", "" ],
					"parameter_enable" : 0,
					"patching_rect" : [ 349.0, 1128.5, 161.0, 22.0 ],
					"presentation" : 1,
					"presentation_rect" : [ 1265.016602, 666.333313, 161.0, 22.0 ],
					"style" : ""
				}

			}
, 			{
				"box" : 				{
					"id" : "obj-71",
					"maxclass" : "newobj",
					"numinlets" : 1,
					"numoutlets" : 1,
					"outlettype" : [ "" ],
					"patching_rect" : [ 671.099976, 1321.333252, 98.0, 22.0 ],
					"style" : "",
					"text" : "prepend append"
				}

			}
, 			{
				"box" : 				{
					"id" : "obj-72",
					"maxclass" : "newobj",
					"numinlets" : 1,
					"numoutlets" : 1,
					"outlettype" : [ "" ],
					"patching_rect" : [ 671.099976, 1289.5, 27.0, 22.0 ],
					"style" : "",
					"text" : "iter"
				}

			}
, 			{
				"box" : 				{
					"id" : "obj-73",
					"maxclass" : "newobj",
					"numinlets" : 2,
					"numoutlets" : 2,
					"outlettype" : [ "", "" ],
					"patching_rect" : [ 671.099976, 1258.0, 62.0, 22.0 ],
					"style" : "",
					"text" : "route port"
				}

			}
, 			{
				"box" : 				{
					"id" : "obj-32",
					"maxclass" : "newobj",
					"numinlets" : 2,
					"numoutlets" : 2,
					"outlettype" : [ "bang", "" ],
					"patching_rect" : [ 801.083374, 1158.5, 36.0, 22.0 ],
					"style" : "",
					"text" : "sel 1"
				}

			}
, 			{
				"box" : 				{
					"id" : "obj-31",
					"maxclass" : "newobj",
					"numinlets" : 2,
					"numoutlets" : 2,
					"outlettype" : [ "bang", "" ],
					"patching_rect" : [ 758.083374, 1158.5, 36.0, 22.0 ],
					"style" : "",
					"text" : "sel 0"
				}

			}
, 			{
				"box" : 				{
					"id" : "obj-10",
					"maxclass" : "message",
					"numinlets" : 2,
					"numoutlets" : 1,
					"outlettype" : [ "" ],
					"patching_rect" : [ 758.083374, 1187.833252, 41.0, 22.0 ],
					"style" : "",
					"text" : "77 77"
				}

			}
, 			{
				"box" : 				{
					"id" : "obj-19",
					"maxclass" : "message",
					"numinlets" : 2,
					"numoutlets" : 1,
					"outlettype" : [ "" ],
					"patching_rect" : [ 801.083374, 1187.833252, 44.0, 22.0 ],
					"style" : "",
					"text" : "88 88"
				}

			}
, 			{
				"box" : 				{
					"bubble" : 1,
					"id" : "obj-29",
					"linecount" : 4,
					"maxclass" : "comment",
					"numinlets" : 1,
					"numoutlets" : 0,
					"patching_rect" : [ 675.166687, 1057.5, 189.833344, 63.0 ],
					"presentation" : 1,
					"presentation_linecount" : 3,
					"presentation_rect" : [ 1296.916626, 718.997803, 200.0, 50.0 ],
					"style" : "",
					"text" : "遠隔のデバッグ用．\nArduino IDEのシリアルモニタに\n値を出力する．"
				}

			}
, 			{
				"box" : 				{
					"id" : "obj-28",
					"maxclass" : "toggle",
					"numinlets" : 1,
					"numoutlets" : 1,
					"outlettype" : [ "int" ],
					"parameter_enable" : 0,
					"patching_rect" : [ 758.083374, 1123.633301, 24.0, 24.0 ],
					"presentation" : 1,
					"presentation_rect" : [ 1265.016602, 731.997803, 24.0, 24.0 ],
					"style" : ""
				}

			}
, 			{
				"box" : 				{
					"id" : "obj-2",
					"maxclass" : "newobj",
					"numinlets" : 2,
					"numoutlets" : 1,
					"outlettype" : [ "bang" ],
					"patching_rect" : [ 392.683105, 577.866699, 69.0, 22.0 ],
					"style" : "",
					"text" : "delay 1000"
				}

			}
, 			{
				"box" : 				{
					"bubbleside" : 0,
					"id" : "obj-22",
					"linecount" : 4,
					"maxclass" : "comment",
					"numinlets" : 1,
					"numoutlets" : 0,
					"patching_rect" : [ 225.466553, 658.833313, 203.0, 60.0 ],
					"style" : "",
					"text" : "17番に全ONを，24番に全OFFを入れておく．\n起動直後は泡を成長させるために全ONを呼び出す．"
				}

			}
, 			{
				"box" : 				{
					"id" : "obj-422",
					"maxclass" : "message",
					"numinlets" : 2,
					"numoutlets" : 1,
					"outlettype" : [ "" ],
					"patching_rect" : [ 392.683105, 628.533325, 29.5, 22.0 ],
					"style" : "",
					"text" : "17"
				}

			}
, 			{
				"box" : 				{
					"fontface" : 1,
					"fontname" : "Arial",
					"fontsize" : 36.0,
					"id" : "obj-4",
					"maxclass" : "comment",
					"numinlets" : 1,
					"numoutlets" : 0,
					"patching_rect" : [ 1767.75, 55.033356, 290.0, 47.0 ],
					"presentation" : 1,
					"presentation_rect" : [ 1262.524902, 979.333313, 290.0, 47.0 ],
					"style" : "",
					"text" : "Foam Controller"
				}

			}
, 			{
				"box" : 				{
					"id" : "obj-1",
					"maxclass" : "newobj",
					"numinlets" : 1,
					"numoutlets" : 1,
					"outlettype" : [ "bang" ],
					"patching_rect" : [ 276.966431, 543.259033, 60.0, 22.0 ],
					"style" : "",
					"text" : "loadbang"
				}

			}
, 			{
				"box" : 				{
					"bubble" : 1,
					"id" : "obj-21",
					"linecount" : 2,
					"maxclass" : "comment",
					"numinlets" : 1,
					"numoutlets" : 0,
					"patching_rect" : [ 102.966324, 468.333313, 172.0, 36.0 ],
					"presentation" : 1,
					"presentation_linecount" : 2,
					"presentation_rect" : [ 1369.94165, 334.128937, 172.0, 36.0 ],
					"style" : "",
					"text" : "番号入力+Enterでパターンを削除"
				}

			}
, 			{
				"box" : 				{
					"id" : "obj-17",
					"maxclass" : "newobj",
					"numinlets" : 2,
					"numoutlets" : 1,
					"outlettype" : [ "" ],
					"patching_rect" : [ 276.966553, 507.800018, 69.0, 22.0 ],
					"style" : "",
					"text" : "pak clear 0"
				}

			}
, 			{
				"box" : 				{
					"id" : "obj-11",
					"maxclass" : "number",
					"numinlets" : 1,
					"numoutlets" : 2,
					"outlettype" : [ "", "bang" ],
					"parameter_enable" : 0,
					"patching_rect" : [ 326.966553, 468.333313, 50.0, 22.0 ],
					"presentation" : 1,
					"presentation_rect" : [ 1265.016602, 341.128937, 50.0, 22.0 ],
					"style" : ""
				}

			}
, 			{
				"box" : 				{
					"id" : "obj-9",
					"maxclass" : "message",
					"numinlets" : 2,
					"numoutlets" : 1,
					"outlettype" : [ "" ],
					"patching_rect" : [ 276.966553, 468.333313, 37.0, 22.0 ],
					"style" : "",
					"text" : "clear"
				}

			}
, 			{
				"box" : 				{
					"bubble" : 1,
					"id" : "obj-7",
					"maxclass" : "comment",
					"numinlets" : 1,
					"numoutlets" : 0,
					"patching_rect" : [ 102.966324, 576.866699, 172.0, 24.0 ],
					"presentation" : 1,
					"presentation_rect" : [ 1369.94165, 134.866699, 172.0, 24.0 ],
					"style" : "",
					"text" : "保存されている値をロード"
				}

			}
, 			{
				"box" : 				{
					"bubble" : 1,
					"id" : "obj-6",
					"maxclass" : "comment",
					"numinlets" : 1,
					"numoutlets" : 0,
					"patching_rect" : [ 474.866577, 501.266693, 160.0, 24.0 ],
					"presentation" : 1,
					"presentation_rect" : [ 1369.94165, 306.497833, 160.0, 24.0 ],
					"style" : "",
					"text" : "保存されている値を確認"
				}

			}
, 			{
				"box" : 				{
					"bubble" : 1,
					"id" : "obj-5",
					"linecount" : 2,
					"maxclass" : "comment",
					"numinlets" : 1,
					"numoutlets" : 0,
					"patching_rect" : [ 474.866577, 536.733398, 156.466766, 36.0 ],
					"presentation" : 1,
					"presentation_linecount" : 2,
					"presentation_rect" : [ 1369.94165, 215.641052, 156.466766, 36.0 ],
					"style" : "",
					"text" : "jsonファイルにパターンを書き込み"
				}

			}
, 			{
				"box" : 				{
					"bubble" : 1,
					"id" : "obj-3",
					"linecount" : 2,
					"maxclass" : "comment",
					"numinlets" : 1,
					"numoutlets" : 0,
					"patching_rect" : [ 56.966324, 610.333252, 218.0, 36.0 ],
					"presentation" : 1,
					"presentation_linecount" : 2,
					"presentation_rect" : [ 1369.94165, 170.497803, 218.0, 36.0 ],
					"style" : "",
					"text" : "Shift+クリックでパターンを保存、\n数字をクリックして呼び出し"
				}

			}
, 			{
				"box" : 				{
					"id" : "obj-36",
					"maxclass" : "message",
					"numinlets" : 2,
					"numoutlets" : 1,
					"outlettype" : [ "" ],
					"patching_rect" : [ 276.966431, 576.866699, 105.0, 22.0 ],
					"presentation" : 1,
					"presentation_rect" : [ 1265.016602, 138.866699, 105.0, 22.0 ],
					"style" : "",
					"text" : "pattrstorage store"
				}

			}
, 			{
				"box" : 				{
					"id" : "obj-34",
					"maxclass" : "preset",
					"numinlets" : 1,
					"numoutlets" : 4,
					"outlettype" : [ "preset", "int", "preset", "int" ],
					"patching_rect" : [ 276.966553, 610.333252, 100.0, 40.0 ],
					"pattrstorage" : "store",
					"presentation" : 1,
					"presentation_rect" : [ 1265.016602, 170.497803, 100.0, 40.0 ],
					"style" : ""
				}

			}
, 			{
				"box" : 				{
					"id" : "obj-25",
					"maxclass" : "message",
					"numinlets" : 2,
					"numoutlets" : 1,
					"outlettype" : [ "" ],
					"patching_rect" : [ 575.266602, 576.866699, 58.0, 22.0 ],
					"presentation" : 1,
					"presentation_rect" : [ 1265.016602, 225.166687, 58.0, 22.0 ],
					"style" : "",
					"text" : "writejson"
				}

			}
, 			{
				"box" : 				{
					"id" : "obj-23",
					"maxclass" : "message",
					"numinlets" : 2,
					"numoutlets" : 1,
					"outlettype" : [ "" ],
					"patching_rect" : [ 474.866577, 576.866699, 79.0, 22.0 ],
					"presentation" : 1,
					"presentation_rect" : [ 1265.016602, 306.497833, 79.0, 22.0 ],
					"style" : "",
					"text" : "clientwindow"
				}

			}
, 			{
				"box" : 				{
					"id" : "obj-20",
					"maxclass" : "newobj",
					"numinlets" : 1,
					"numoutlets" : 1,
					"outlettype" : [ "" ],
					"patching_rect" : [ 474.866577, 628.533325, 105.0, 22.0 ],
					"saved_object_attributes" : 					{
						"client_rect" : [ 4, 44, 358, 172 ],
						"parameter_enable" : 0,
						"storage_rect" : [ 583, 69, 1034, 197 ]
					}
,
					"style" : "",
					"text" : "pattrstorage store",
					"varname" : "store"
				}

			}
, 			{
				"box" : 				{
					"bgmode" : 0,
					"border" : 0,
					"clickthrough" : 0,
					"enablehscroll" : 0,
					"enablevscroll" : 0,
					"id" : "obj-16",
					"lockeddragscroll" : 0,
					"maxclass" : "bpatcher",
					"name" : "valveUI03.maxpat",
					"numinlets" : 0,
					"numoutlets" : 0,
					"offset" : [ 0.0, 0.0 ],
					"patching_rect" : [ 1803.43335, 247.333313, 272.333344, 1096.0 ],
					"presentation" : 1,
					"presentation_rect" : [ 944.666687, -23.666687, 275.0, 1101.666748 ],
					"varname" : "valveUI03",
					"viewvisibility" : 1
				}

			}
, 			{
				"box" : 				{
					"bgmode" : 0,
					"border" : 0,
					"clickthrough" : 0,
					"enablehscroll" : 0,
					"enablevscroll" : 0,
					"id" : "obj-14",
					"lockeddragscroll" : 0,
					"maxclass" : "bpatcher",
					"name" : "valveUI02.maxpat",
					"numinlets" : 0,
					"numoutlets" : 0,
					"offset" : [ 0.0, 0.0 ],
					"patching_rect" : [ 1530.766602, 247.333313, 271.666687, 1096.0 ],
					"presentation" : 1,
					"presentation_rect" : [ 698.433289, -23.666687, 266.0, 1124.0 ],
					"varname" : "valveUI02",
					"viewvisibility" : 1
				}

			}
, 			{
				"box" : 				{
					"id" : "obj-15",
					"maxclass" : "newobj",
					"numinlets" : 1,
					"numoutlets" : 2,
					"outlettype" : [ "int", "" ],
					"patching_rect" : [ 611.099976, 1224.533325, 79.0, 22.0 ],
					"style" : "",
					"text" : "serial d 9600"
				}

			}
, 			{
				"box" : 				{
					"bgmode" : 0,
					"border" : 0,
					"clickthrough" : 0,
					"enablehscroll" : 0,
					"enablevscroll" : 0,
					"id" : "obj-66",
					"lockeddragscroll" : 0,
					"maxclass" : "bpatcher",
					"name" : "solenoidValves03.maxpat",
					"numinlets" : 0,
					"numoutlets" : 1,
					"offset" : [ 0.0, 0.0 ],
					"outlettype" : [ "" ],
					"patching_rect" : [ 478.099976, 955.133423, 116.0, 27.000031 ],
					"viewvisibility" : 1
				}

			}
, 			{
				"box" : 				{
					"bgmode" : 0,
					"border" : 0,
					"clickthrough" : 0,
					"enablehscroll" : 0,
					"enablevscroll" : 0,
					"id" : "obj-65",
					"lockeddragscroll" : 0,
					"maxclass" : "bpatcher",
					"name" : "solenoidValves02.maxpat",
					"numinlets" : 0,
					"numoutlets" : 1,
					"offset" : [ 0.0, 0.0 ],
					"outlettype" : [ "" ],
					"patching_rect" : [ 478.099976, 918.333252, 116.0, 23.0 ],
					"viewvisibility" : 1
				}

			}
, 			{
				"box" : 				{
					"bgmode" : 0,
					"border" : 0,
					"clickthrough" : 0,
					"enablehscroll" : 0,
					"enablevscroll" : 0,
					"id" : "obj-64",
					"lockeddragscroll" : 0,
					"maxclass" : "bpatcher",
					"name" : "solenoidValves01.maxpat",
					"numinlets" : 0,
					"numoutlets" : 1,
					"offset" : [ 0.0, 0.0 ],
					"outlettype" : [ "" ],
					"patching_rect" : [ 478.099976, 881.333252, 116.0, 23.0 ],
					"viewvisibility" : 1
				}

			}
, 			{
				"box" : 				{
					"bgmode" : 0,
					"border" : 0,
					"clickthrough" : 0,
					"enablehscroll" : 0,
					"enablevscroll" : 0,
					"id" : "obj-58",
					"lockeddragscroll" : 0,
					"maxclass" : "bpatcher",
					"name" : "solenoidValves00.maxpat",
					"numinlets" : 0,
					"numoutlets" : 1,
					"offset" : [ 0.0, 0.0 ],
					"outlettype" : [ "" ],
					"patching_rect" : [ 478.099976, 844.333313, 116.0, 23.0 ],
					"viewvisibility" : 1
				}

			}
, 			{
				"box" : 				{
					"bgmode" : 0,
					"border" : 0,
					"clickthrough" : 0,
					"enablehscroll" : 0,
					"enablevscroll" : 0,
					"id" : "obj-48",
					"lockeddragscroll" : 0,
					"maxclass" : "bpatcher",
					"name" : "pumps.maxpat",
					"numinlets" : 7,
					"numoutlets" : 1,
					"offset" : [ 0.0, 0.0 ],
					"outlettype" : [ "" ],
					"patching_rect" : [ 611.099976, 958.466736, 116.400002, 23.666718 ],
					"viewvisibility" : 1
				}

			}
, 			{
				"box" : 				{
					"bubble" : 1,
					"bubbleside" : 3,
					"fontface" : 1,
					"fontsize" : 18.0,
					"id" : "obj-44",
					"maxclass" : "comment",
					"numinlets" : 1,
					"numoutlets" : 0,
					"patching_rect" : [ 983.099976, 199.333313, 83.0, 31.0 ],
					"presentation" : 1,
					"presentation_rect" : [ 143.299988, 58.497803, 89.0, 31.0 ],
					"style" : "",
					"text" : "電磁弁",
					"textjustification" : 1
				}

			}
, 			{
				"box" : 				{
					"bubble" : 1,
					"bubbleside" : 2,
					"fontface" : 1,
					"fontsize" : 18.0,
					"id" : "obj-43",
					"maxclass" : "comment",
					"numinlets" : 1,
					"numoutlets" : 0,
					"patching_rect" : [ 744.5, 199.333313, 66.5, 46.0 ],
					"presentation" : 1,
					"presentation_rect" : [ 46.016632, 58.497803, 66.5, 46.0 ],
					"style" : "",
					"text" : "ポンプ",
					"textjustification" : 1
				}

			}
, 			{
				"box" : 				{
					"fontface" : 1,
					"fontname" : "Arial",
					"fontsize" : 16.0,
					"id" : "obj-267",
					"maxclass" : "comment",
					"numinlets" : 1,
					"numoutlets" : 0,
					"patching_rect" : [ 816.0, 915.333252, 42.0, 24.0 ],
					"presentation" : 1,
					"presentation_rect" : [ 117.516632, 779.497803, 42.0, 24.0 ],
					"style" : "",
					"text" : "07",
					"textcolor" : [ 0.803922, 0.898039, 0.909804, 1.0 ],
					"textjustification" : 2
				}

			}
, 			{
				"box" : 				{
					"fontname" : "Arial",
					"fontsize" : 13.0,
					"id" : "obj-269",
					"maxclass" : "comment",
					"numinlets" : 1,
					"numoutlets" : 0,
					"patching_rect" : [ 763.0, 918.333252, 48.0, 21.0 ],
					"presentation" : 1,
					"presentation_rect" : [ 64.516632, 782.497803, 48.0, 21.0 ],
					"style" : "",
					"text" : "ON",
					"textcolor" : [ 0.803922, 0.898039, 0.909804, 1.0 ]
				}

			}
, 			{
				"box" : 				{
					"fontname" : "Arial",
					"fontsize" : 13.0,
					"id" : "obj-270",
					"maxclass" : "comment",
					"numinlets" : 1,
					"numoutlets" : 0,
					"patching_rect" : [ 763.0, 888.333252, 48.0, 21.0 ],
					"presentation" : 1,
					"presentation_rect" : [ 64.516632, 752.497742, 48.0, 21.0 ],
					"style" : "",
					"text" : "OFF",
					"textcolor" : [ 0.803922, 0.898039, 0.909804, 1.0 ]
				}

			}
, 			{
				"box" : 				{
					"disabled" : [ 0, 0 ],
					"flagmode" : 1,
					"id" : "obj-271",
					"itemtype" : 0,
					"maxclass" : "radiogroup",
					"numinlets" : 1,
					"numoutlets" : 1,
					"offset" : 29,
					"outlettype" : [ "" ],
					"parameter_enable" : 0,
					"patching_rect" : [ 744.5, 888.333252, 120.5, 60.0 ],
					"presentation" : 1,
					"presentation_rect" : [ 46.016632, 752.497742, 120.5, 60.0 ],
					"size" : 2,
					"style" : "",
					"value" : 1
				}

			}
, 			{
				"box" : 				{
					"fontface" : 1,
					"fontname" : "Arial",
					"fontsize" : 16.0,
					"id" : "obj-275",
					"maxclass" : "comment",
					"numinlets" : 1,
					"numoutlets" : 0,
					"patching_rect" : [ 816.0, 810.333313, 42.0, 24.0 ],
					"presentation" : 1,
					"presentation_rect" : [ 117.516632, 674.497803, 42.0, 24.0 ],
					"style" : "",
					"text" : "06",
					"textcolor" : [ 0.803922, 0.898039, 0.909804, 1.0 ],
					"textjustification" : 2
				}

			}
, 			{
				"box" : 				{
					"fontname" : "Arial",
					"fontsize" : 13.0,
					"id" : "obj-277",
					"maxclass" : "comment",
					"numinlets" : 1,
					"numoutlets" : 0,
					"patching_rect" : [ 763.0, 813.333313, 48.0, 21.0 ],
					"presentation" : 1,
					"presentation_rect" : [ 64.516632, 677.497803, 48.0, 21.0 ],
					"style" : "",
					"text" : "ON",
					"textcolor" : [ 0.803922, 0.898039, 0.909804, 1.0 ]
				}

			}
, 			{
				"box" : 				{
					"fontname" : "Arial",
					"fontsize" : 13.0,
					"id" : "obj-278",
					"maxclass" : "comment",
					"numinlets" : 1,
					"numoutlets" : 0,
					"patching_rect" : [ 763.0, 783.333313, 48.0, 21.0 ],
					"presentation" : 1,
					"presentation_rect" : [ 64.516632, 647.497803, 48.0, 21.0 ],
					"style" : "",
					"text" : "OFF",
					"textcolor" : [ 0.803922, 0.898039, 0.909804, 1.0 ]
				}

			}
, 			{
				"box" : 				{
					"disabled" : [ 0, 0 ],
					"flagmode" : 1,
					"id" : "obj-279",
					"itemtype" : 0,
					"maxclass" : "radiogroup",
					"numinlets" : 1,
					"numoutlets" : 1,
					"offset" : 29,
					"outlettype" : [ "" ],
					"parameter_enable" : 0,
					"patching_rect" : [ 744.5, 783.333313, 120.5, 60.0 ],
					"presentation" : 1,
					"presentation_rect" : [ 46.016632, 647.497803, 120.5, 60.0 ],
					"size" : 2,
					"style" : "",
					"value" : 1
				}

			}
, 			{
				"box" : 				{
					"fontface" : 1,
					"fontname" : "Arial",
					"fontsize" : 16.0,
					"id" : "obj-283",
					"maxclass" : "comment",
					"numinlets" : 1,
					"numoutlets" : 0,
					"patching_rect" : [ 816.0, 705.333313, 42.0, 24.0 ],
					"presentation" : 1,
					"presentation_rect" : [ 117.516632, 569.497803, 42.0, 24.0 ],
					"style" : "",
					"text" : "05",
					"textcolor" : [ 0.803922, 0.898039, 0.909804, 1.0 ],
					"textjustification" : 2
				}

			}
, 			{
				"box" : 				{
					"fontname" : "Arial",
					"fontsize" : 13.0,
					"id" : "obj-285",
					"maxclass" : "comment",
					"numinlets" : 1,
					"numoutlets" : 0,
					"patching_rect" : [ 763.0, 708.333313, 48.0, 21.0 ],
					"presentation" : 1,
					"presentation_rect" : [ 64.516632, 572.497803, 48.0, 21.0 ],
					"style" : "",
					"text" : "ON",
					"textcolor" : [ 0.803922, 0.898039, 0.909804, 1.0 ]
				}

			}
, 			{
				"box" : 				{
					"fontname" : "Arial",
					"fontsize" : 13.0,
					"id" : "obj-286",
					"maxclass" : "comment",
					"numinlets" : 1,
					"numoutlets" : 0,
					"patching_rect" : [ 763.0, 678.333313, 48.0, 21.0 ],
					"presentation" : 1,
					"presentation_rect" : [ 64.516632, 542.497803, 48.0, 21.0 ],
					"style" : "",
					"text" : "OFF",
					"textcolor" : [ 0.803922, 0.898039, 0.909804, 1.0 ]
				}

			}
, 			{
				"box" : 				{
					"disabled" : [ 0, 0 ],
					"flagmode" : 1,
					"id" : "obj-287",
					"itemtype" : 0,
					"maxclass" : "radiogroup",
					"numinlets" : 1,
					"numoutlets" : 1,
					"offset" : 29,
					"outlettype" : [ "" ],
					"parameter_enable" : 0,
					"patching_rect" : [ 744.5, 678.333313, 120.5, 60.0 ],
					"presentation" : 1,
					"presentation_rect" : [ 46.016632, 542.497803, 120.5, 60.0 ],
					"size" : 2,
					"style" : "",
					"value" : 1
				}

			}
, 			{
				"box" : 				{
					"fontface" : 1,
					"fontname" : "Arial",
					"fontsize" : 16.0,
					"id" : "obj-291",
					"maxclass" : "comment",
					"numinlets" : 1,
					"numoutlets" : 0,
					"patching_rect" : [ 816.0, 600.333313, 42.0, 24.0 ],
					"presentation" : 1,
					"presentation_rect" : [ 117.516632, 464.497803, 42.0, 24.0 ],
					"style" : "",
					"text" : "04",
					"textcolor" : [ 0.803922, 0.898039, 0.909804, 1.0 ],
					"textjustification" : 2
				}

			}
, 			{
				"box" : 				{
					"fontname" : "Arial",
					"fontsize" : 13.0,
					"id" : "obj-293",
					"maxclass" : "comment",
					"numinlets" : 1,
					"numoutlets" : 0,
					"patching_rect" : [ 763.0, 603.333313, 48.0, 21.0 ],
					"presentation" : 1,
					"presentation_rect" : [ 64.516632, 467.497803, 48.0, 21.0 ],
					"style" : "",
					"text" : "ON",
					"textcolor" : [ 0.803922, 0.898039, 0.909804, 1.0 ]
				}

			}
, 			{
				"box" : 				{
					"fontname" : "Arial",
					"fontsize" : 13.0,
					"id" : "obj-294",
					"maxclass" : "comment",
					"numinlets" : 1,
					"numoutlets" : 0,
					"patching_rect" : [ 763.0, 573.333313, 48.0, 21.0 ],
					"presentation" : 1,
					"presentation_rect" : [ 64.516632, 437.497803, 48.0, 21.0 ],
					"style" : "",
					"text" : "OFF",
					"textcolor" : [ 0.803922, 0.898039, 0.909804, 1.0 ]
				}

			}
, 			{
				"box" : 				{
					"disabled" : [ 0, 0 ],
					"flagmode" : 1,
					"id" : "obj-295",
					"itemtype" : 0,
					"maxclass" : "radiogroup",
					"numinlets" : 1,
					"numoutlets" : 1,
					"offset" : 29,
					"outlettype" : [ "" ],
					"parameter_enable" : 0,
					"patching_rect" : [ 744.5, 573.333313, 120.5, 60.0 ],
					"presentation" : 1,
					"presentation_rect" : [ 46.016632, 437.497803, 120.5, 60.0 ],
					"size" : 2,
					"style" : "",
					"value" : 1
				}

			}
, 			{
				"box" : 				{
					"fontface" : 1,
					"fontname" : "Arial",
					"fontsize" : 16.0,
					"id" : "obj-299",
					"maxclass" : "comment",
					"numinlets" : 1,
					"numoutlets" : 0,
					"patching_rect" : [ 816.0, 495.333313, 42.0, 24.0 ],
					"presentation" : 1,
					"presentation_rect" : [ 117.516632, 359.497803, 42.0, 24.0 ],
					"style" : "",
					"text" : "03\n",
					"textcolor" : [ 0.803922, 0.898039, 0.909804, 1.0 ],
					"textjustification" : 2
				}

			}
, 			{
				"box" : 				{
					"fontname" : "Arial",
					"fontsize" : 13.0,
					"id" : "obj-301",
					"maxclass" : "comment",
					"numinlets" : 1,
					"numoutlets" : 0,
					"patching_rect" : [ 763.0, 498.333313, 48.0, 21.0 ],
					"presentation" : 1,
					"presentation_rect" : [ 64.516632, 362.497803, 48.0, 21.0 ],
					"style" : "",
					"text" : "ON",
					"textcolor" : [ 0.803922, 0.898039, 0.909804, 1.0 ]
				}

			}
, 			{
				"box" : 				{
					"fontname" : "Arial",
					"fontsize" : 13.0,
					"id" : "obj-302",
					"maxclass" : "comment",
					"numinlets" : 1,
					"numoutlets" : 0,
					"patching_rect" : [ 763.0, 468.333313, 48.0, 21.0 ],
					"presentation" : 1,
					"presentation_rect" : [ 64.516632, 332.497803, 48.0, 21.0 ],
					"style" : "",
					"text" : "OFF",
					"textcolor" : [ 0.803922, 0.898039, 0.909804, 1.0 ]
				}

			}
, 			{
				"box" : 				{
					"disabled" : [ 0, 0 ],
					"flagmode" : 1,
					"id" : "obj-303",
					"itemtype" : 0,
					"maxclass" : "radiogroup",
					"numinlets" : 1,
					"numoutlets" : 1,
					"offset" : 29,
					"outlettype" : [ "" ],
					"parameter_enable" : 0,
					"patching_rect" : [ 744.5, 468.333313, 120.5, 60.0 ],
					"presentation" : 1,
					"presentation_rect" : [ 46.016632, 332.497803, 120.5, 60.0 ],
					"size" : 2,
					"style" : "",
					"value" : 1
				}

			}
, 			{
				"box" : 				{
					"fontface" : 1,
					"fontname" : "Arial",
					"fontsize" : 16.0,
					"id" : "obj-307",
					"maxclass" : "comment",
					"numinlets" : 1,
					"numoutlets" : 0,
					"patching_rect" : [ 816.0, 390.333313, 42.0, 24.0 ],
					"presentation" : 1,
					"presentation_rect" : [ 117.516632, 254.497803, 42.0, 24.0 ],
					"style" : "",
					"text" : "02",
					"textcolor" : [ 0.803922, 0.898039, 0.909804, 1.0 ],
					"textjustification" : 2
				}

			}
, 			{
				"box" : 				{
					"fontname" : "Arial",
					"fontsize" : 13.0,
					"id" : "obj-309",
					"maxclass" : "comment",
					"numinlets" : 1,
					"numoutlets" : 0,
					"patching_rect" : [ 763.0, 393.333313, 48.0, 21.0 ],
					"presentation" : 1,
					"presentation_rect" : [ 64.516632, 257.497803, 48.0, 21.0 ],
					"style" : "",
					"text" : "ON",
					"textcolor" : [ 0.803922, 0.898039, 0.909804, 1.0 ]
				}

			}
, 			{
				"box" : 				{
					"fontname" : "Arial",
					"fontsize" : 13.0,
					"id" : "obj-310",
					"maxclass" : "comment",
					"numinlets" : 1,
					"numoutlets" : 0,
					"patching_rect" : [ 763.0, 363.333313, 48.0, 21.0 ],
					"presentation" : 1,
					"presentation_rect" : [ 64.516632, 227.497803, 48.0, 21.0 ],
					"style" : "",
					"text" : "OFF",
					"textcolor" : [ 0.803922, 0.898039, 0.909804, 1.0 ]
				}

			}
, 			{
				"box" : 				{
					"disabled" : [ 0, 0 ],
					"flagmode" : 1,
					"id" : "obj-311",
					"itemtype" : 0,
					"maxclass" : "radiogroup",
					"numinlets" : 1,
					"numoutlets" : 1,
					"offset" : 29,
					"outlettype" : [ "" ],
					"parameter_enable" : 0,
					"patching_rect" : [ 744.5, 363.333313, 120.5, 60.0 ],
					"presentation" : 1,
					"presentation_rect" : [ 46.016632, 227.497803, 120.5, 60.0 ],
					"size" : 2,
					"style" : "",
					"value" : 1
				}

			}
, 			{
				"box" : 				{
					"fontface" : 1,
					"fontname" : "Arial",
					"fontsize" : 16.0,
					"id" : "obj-315",
					"maxclass" : "comment",
					"numinlets" : 1,
					"numoutlets" : 0,
					"patching_rect" : [ 816.0, 285.333313, 42.0, 24.0 ],
					"presentation" : 1,
					"presentation_rect" : [ 117.516632, 149.497803, 42.0, 24.0 ],
					"style" : "",
					"text" : "01",
					"textcolor" : [ 0.803922, 0.898039, 0.909804, 1.0 ],
					"textjustification" : 2
				}

			}
, 			{
				"box" : 				{
					"fontname" : "Arial",
					"fontsize" : 13.0,
					"id" : "obj-319",
					"maxclass" : "comment",
					"numinlets" : 1,
					"numoutlets" : 0,
					"patching_rect" : [ 763.0, 288.333313, 48.0, 21.0 ],
					"presentation" : 1,
					"presentation_rect" : [ 64.516632, 152.497803, 48.0, 21.0 ],
					"style" : "",
					"text" : "ON",
					"textcolor" : [ 0.803922, 0.898039, 0.909804, 1.0 ]
				}

			}
, 			{
				"box" : 				{
					"fontname" : "Arial",
					"fontsize" : 13.0,
					"id" : "obj-320",
					"maxclass" : "comment",
					"numinlets" : 1,
					"numoutlets" : 0,
					"patching_rect" : [ 763.0, 258.333313, 48.0, 21.0 ],
					"presentation" : 1,
					"presentation_rect" : [ 64.516632, 122.497803, 48.0, 21.0 ],
					"style" : "",
					"text" : "OFF",
					"textcolor" : [ 0.803922, 0.898039, 0.909804, 1.0 ]
				}

			}
, 			{
				"box" : 				{
					"disabled" : [ 0, 0 ],
					"flagmode" : 1,
					"id" : "obj-321",
					"itemtype" : 0,
					"maxclass" : "radiogroup",
					"numinlets" : 1,
					"numoutlets" : 1,
					"offset" : 29,
					"outlettype" : [ "" ],
					"parameter_enable" : 0,
					"patching_rect" : [ 744.5, 258.333313, 120.5, 60.0 ],
					"presentation" : 1,
					"presentation_rect" : [ 46.016632, 122.497803, 120.5, 60.0 ],
					"size" : 2,
					"style" : "",
					"value" : 1
				}

			}
, 			{
				"box" : 				{
					"bgmode" : 0,
					"border" : 0,
					"clickthrough" : 0,
					"enablehscroll" : 0,
					"enablevscroll" : 0,
					"id" : "obj-12",
					"lockeddragscroll" : 0,
					"maxclass" : "bpatcher",
					"name" : "valveUI00.maxpat",
					"numinlets" : 0,
					"numoutlets" : 0,
					"offset" : [ 0.0, 0.0 ],
					"patching_rect" : [ 983.099976, 247.333313, 274.0, 1096.0 ],
					"presentation" : 1,
					"presentation_rect" : [ 203.099976, -23.666687, 264.0, 1112.0 ],
					"varname" : "valveUI00",
					"viewvisibility" : 1
				}

			}
, 			{
				"box" : 				{
					"bgmode" : 0,
					"border" : 0,
					"clickthrough" : 0,
					"enablehscroll" : 0,
					"enablevscroll" : 0,
					"id" : "obj-47",
					"lockeddragscroll" : 0,
					"maxclass" : "bpatcher",
					"name" : "timeManager.maxpat",
					"numinlets" : 0,
					"numoutlets" : 1,
					"offset" : [ 0.0, 0.0 ],
					"outlettype" : [ "" ],
					"patching_rect" : [ 1550.833252, 50.200012, 185.266724, 176.266693 ],
					"presentation" : 1,
					"presentation_rect" : [ 14.160408, 857.581116, 184.212448, 184.833344 ],
					"varname" : "timeManager",
					"viewvisibility" : 1
				}

			}
, 			{
				"box" : 				{
					"bgmode" : 0,
					"border" : 0,
					"clickthrough" : 0,
					"enablehscroll" : 0,
					"enablevscroll" : 0,
					"id" : "obj-13",
					"lockeddragscroll" : 0,
					"maxclass" : "bpatcher",
					"name" : "valveUI01.maxpat",
					"numinlets" : 0,
					"numoutlets" : 0,
					"offset" : [ 0.0, 0.0 ],
					"patching_rect" : [ 1257.099976, 247.333313, 272.666656, 1096.0 ],
					"presentation" : 1,
					"presentation_rect" : [ 450.099976, -23.666687, 265.0, 1090.0 ],
					"varname" : "valveUI01",
					"viewvisibility" : 1
				}

			}
, 			{
				"box" : 				{
					"background" : 1,
					"bgcolor" : [ 1.0, 0.788235, 0.470588, 1.0 ],
					"bgoncolor" : [ 0.55, 0.55, 0.55, 1.0 ],
					"fontface" : 1,
					"hint" : "",
					"id" : "obj-24",
					"ignoreclick" : 1,
					"legacytextcolor" : 1,
					"maxclass" : "textbutton",
					"numinlets" : 1,
					"numoutlets" : 3,
					"outlettype" : [ "", "", "int" ],
					"parameter_enable" : 0,
					"patching_rect" : [ 441.433105, 543.259033, 20.455872, 22.94873 ],
					"presentation" : 1,
					"presentation_rect" : [ 1236.841553, 222.166687, 20.455872, 22.94873 ],
					"rounded" : 60.0,
					"style" : "",
					"text" : "2",
					"textcolor" : [ 0.34902, 0.34902, 0.34902, 1.0 ],
					"textoncolor" : [ 1.0, 1.0, 1.0, 1.0 ],
					"textovercolor" : [ 0.2, 0.2, 0.2, 1.0 ],
					"usebgoncolor" : 1,
					"usetextovercolor" : 1
				}

			}
, 			{
				"box" : 				{
					"background" : 1,
					"bgcolor" : [ 1.0, 0.788235, 0.470588, 1.0 ],
					"bgoncolor" : [ 0.55, 0.55, 0.55, 1.0 ],
					"fontface" : 1,
					"hint" : "",
					"id" : "obj-30",
					"ignoreclick" : 1,
					"legacytextcolor" : 1,
					"maxclass" : "textbutton",
					"numinlets" : 1,
					"numoutlets" : 3,
					"outlettype" : [ "", "", "int" ],
					"parameter_enable" : 0,
					"patching_rect" : [ 26.433121, 616.858887, 20.455872, 22.94873 ],
					"presentation" : 1,
					"presentation_rect" : [ 1236.841553, 177.023438, 20.455872, 22.94873 ],
					"rounded" : 60.0,
					"style" : "",
					"text" : "1",
					"textcolor" : [ 0.34902, 0.34902, 0.34902, 1.0 ],
					"textoncolor" : [ 1.0, 1.0, 1.0, 1.0 ],
					"textovercolor" : [ 0.2, 0.2, 0.2, 1.0 ],
					"usebgoncolor" : 1,
					"usetextovercolor" : 1
				}

			}
 ],
		"lines" : [ 			{
				"patchline" : 				{
					"destination" : [ "obj-2", 0 ],
					"order" : 0,
					"source" : [ "obj-1", 0 ]
				}

			}
, 			{
				"patchline" : 				{
					"destination" : [ "obj-36", 0 ],
					"order" : 1,
					"source" : [ "obj-1", 0 ]
				}

			}
, 			{
				"patchline" : 				{
					"destination" : [ "obj-15", 0 ],
					"source" : [ "obj-10", 0 ]
				}

			}
, 			{
				"patchline" : 				{
					"destination" : [ "obj-17", 1 ],
					"source" : [ "obj-11", 0 ]
				}

			}
, 			{
				"patchline" : 				{
					"destination" : [ "obj-73", 0 ],
					"source" : [ "obj-15", 1 ]
				}

			}
, 			{
				"patchline" : 				{
					"destination" : [ "obj-34", 0 ],
					"source" : [ "obj-17", 0 ]
				}

			}
, 			{
				"patchline" : 				{
					"destination" : [ "obj-271", 0 ],
					"midpoints" : [ 710.5, 873.0, 754.0, 873.0 ],
					"order" : 0,
					"source" : [ "obj-18", 0 ]
				}

			}
, 			{
				"patchline" : 				{
					"destination" : [ "obj-279", 0 ],
					"midpoints" : [ 710.5, 768.0, 754.0, 768.0 ],
					"order" : 1,
					"source" : [ "obj-18", 0 ]
				}

			}
, 			{
				"patchline" : 				{
					"destination" : [ "obj-287", 0 ],
					"midpoints" : [ 710.5, 663.0, 754.0, 663.0 ],
					"order" : 2,
					"source" : [ "obj-18", 0 ]
				}

			}
, 			{
				"patchline" : 				{
					"destination" : [ "obj-295", 0 ],
					"midpoints" : [ 710.5, 558.0, 754.0, 558.0 ],
					"order" : 3,
					"source" : [ "obj-18", 0 ]
				}

			}
, 			{
				"patchline" : 				{
					"destination" : [ "obj-303", 0 ],
					"midpoints" : [ 710.5, 453.0, 754.0, 453.0 ],
					"order" : 4,
					"source" : [ "obj-18", 0 ]
				}

			}
, 			{
				"patchline" : 				{
					"destination" : [ "obj-311", 0 ],
					"midpoints" : [ 710.5, 348.0, 754.0, 348.0 ],
					"order" : 5,
					"source" : [ "obj-18", 0 ]
				}

			}
, 			{
				"patchline" : 				{
					"destination" : [ "obj-321", 0 ],
					"midpoints" : [ 710.5, 285.0, 741.0, 285.0, 741.0, 255.0, 754.0, 255.0 ],
					"order" : 6,
					"source" : [ "obj-18", 0 ]
				}

			}
, 			{
				"patchline" : 				{
					"destination" : [ "obj-15", 0 ],
					"source" : [ "obj-19", 0 ]
				}

			}
, 			{
				"patchline" : 				{
					"destination" : [ "obj-40", 0 ],
					"order" : 0,
					"source" : [ "obj-2", 0 ]
				}

			}
, 			{
				"patchline" : 				{
					"destination" : [ "obj-422", 0 ],
					"order" : 1,
					"source" : [ "obj-2", 0 ]
				}

			}
, 			{
				"patchline" : 				{
					"destination" : [ "obj-20", 0 ],
					"source" : [ "obj-23", 0 ]
				}

			}
, 			{
				"patchline" : 				{
					"destination" : [ "obj-20", 0 ],
					"source" : [ "obj-25", 0 ]
				}

			}
, 			{
				"patchline" : 				{
					"destination" : [ "obj-37", 0 ],
					"source" : [ "obj-27", 0 ]
				}

			}
, 			{
				"patchline" : 				{
					"destination" : [ "obj-48", 6 ],
					"midpoints" : [ 754.0, 954.399963, 718.0, 954.399963 ],
					"source" : [ "obj-271", 0 ]
				}

			}
, 			{
				"patchline" : 				{
					"destination" : [ "obj-48", 5 ],
					"midpoints" : [ 754.0, 901.900024, 701.766663, 901.900024 ],
					"source" : [ "obj-279", 0 ]
				}

			}
, 			{
				"patchline" : 				{
					"destination" : [ "obj-31", 0 ],
					"order" : 1,
					"source" : [ "obj-28", 0 ]
				}

			}
, 			{
				"patchline" : 				{
					"destination" : [ "obj-32", 0 ],
					"order" : 0,
					"source" : [ "obj-28", 0 ]
				}

			}
, 			{
				"patchline" : 				{
					"destination" : [ "obj-48", 4 ],
					"midpoints" : [ 754.0, 849.400024, 685.533325, 849.400024 ],
					"source" : [ "obj-287", 0 ]
				}

			}
, 			{
				"patchline" : 				{
					"destination" : [ "obj-48", 3 ],
					"midpoints" : [ 754.0, 796.900024, 669.299988, 796.900024 ],
					"source" : [ "obj-295", 0 ]
				}

			}
, 			{
				"patchline" : 				{
					"destination" : [ "obj-48", 2 ],
					"midpoints" : [ 754.0, 744.400024, 653.06665, 744.400024 ],
					"source" : [ "obj-303", 0 ]
				}

			}
, 			{
				"patchline" : 				{
					"destination" : [ "obj-10", 0 ],
					"source" : [ "obj-31", 0 ]
				}

			}
, 			{
				"patchline" : 				{
					"destination" : [ "obj-48", 1 ],
					"midpoints" : [ 754.0, 691.900024, 636.833313, 691.900024 ],
					"source" : [ "obj-311", 0 ]
				}

			}
, 			{
				"patchline" : 				{
					"destination" : [ "obj-19", 0 ],
					"source" : [ "obj-32", 0 ]
				}

			}
, 			{
				"patchline" : 				{
					"destination" : [ "obj-48", 0 ],
					"midpoints" : [ 754.0, 639.400024, 620.599976, 639.400024 ],
					"source" : [ "obj-321", 0 ]
				}

			}
, 			{
				"patchline" : 				{
					"destination" : [ "obj-70", 0 ],
					"source" : [ "obj-33", 0 ]
				}

			}
, 			{
				"patchline" : 				{
					"destination" : [ "obj-18", 0 ],
					"midpoints" : [ 313.466553, 468.933228, 692.983276, 468.933228, 692.983276, 247.333313, 710.5, 247.333313 ],
					"source" : [ "obj-34", 1 ]
				}

			}
, 			{
				"patchline" : 				{
					"destination" : [ "obj-34", 0 ],
					"source" : [ "obj-36", 0 ]
				}

			}
, 			{
				"patchline" : 				{
					"destination" : [ "obj-34", 0 ],
					"source" : [ "obj-37", 0 ]
				}

			}
, 			{
				"patchline" : 				{
					"destination" : [ "obj-422", 0 ],
					"source" : [ "obj-40", 0 ]
				}

			}
, 			{
				"patchline" : 				{
					"destination" : [ "obj-34", 0 ],
					"source" : [ "obj-422", 0 ]
				}

			}
, 			{
				"patchline" : 				{
					"destination" : [ "obj-271", 0 ],
					"midpoints" : [ 1560.333252, 228.0, 1077.0, 228.0, 1077.0, 186.0, 876.0, 186.0, 876.0, 873.0, 754.0, 873.0 ],
					"order" : 0,
					"source" : [ "obj-47", 0 ]
				}

			}
, 			{
				"patchline" : 				{
					"destination" : [ "obj-279", 0 ],
					"midpoints" : [ 1560.333252, 228.0, 1077.0, 228.0, 1077.0, 186.0, 876.0, 186.0, 876.0, 768.0, 754.0, 768.0 ],
					"order" : 1,
					"source" : [ "obj-47", 0 ]
				}

			}
, 			{
				"patchline" : 				{
					"destination" : [ "obj-287", 0 ],
					"midpoints" : [ 1560.333252, 228.0, 1077.0, 228.0, 1077.0, 186.0, 876.0, 186.0, 876.0, 663.0, 754.0, 663.0 ],
					"order" : 2,
					"source" : [ "obj-47", 0 ]
				}

			}
, 			{
				"patchline" : 				{
					"destination" : [ "obj-295", 0 ],
					"midpoints" : [ 1560.333252, 228.0, 1077.0, 228.0, 1077.0, 186.0, 876.0, 186.0, 876.0, 558.0, 754.0, 558.0 ],
					"order" : 3,
					"source" : [ "obj-47", 0 ]
				}

			}
, 			{
				"patchline" : 				{
					"destination" : [ "obj-303", 0 ],
					"midpoints" : [ 1560.333252, 228.0, 1077.0, 228.0, 1077.0, 186.0, 876.0, 186.0, 876.0, 453.0, 754.0, 453.0 ],
					"order" : 4,
					"source" : [ "obj-47", 0 ]
				}

			}
, 			{
				"patchline" : 				{
					"destination" : [ "obj-311", 0 ],
					"midpoints" : [ 1560.333252, 228.0, 1077.0, 228.0, 1077.0, 186.0, 876.0, 186.0, 876.0, 348.0, 754.0, 348.0 ],
					"order" : 5,
					"source" : [ "obj-47", 0 ]
				}

			}
, 			{
				"patchline" : 				{
					"destination" : [ "obj-321", 0 ],
					"midpoints" : [ 1560.333252, 228.0, 1077.0, 228.0, 1077.0, 186.0, 822.0, 186.0, 822.0, 252.0, 754.0, 252.0 ],
					"order" : 6,
					"source" : [ "obj-47", 0 ]
				}

			}
, 			{
				"patchline" : 				{
					"destination" : [ "obj-15", 0 ],
					"midpoints" : [ 620.599976, 1108.166748, 620.599976, 1108.166748 ],
					"source" : [ "obj-48", 0 ]
				}

			}
, 			{
				"patchline" : 				{
					"destination" : [ "obj-15", 0 ],
					"midpoints" : [ 487.599976, 1052.43335, 620.599976, 1052.43335 ],
					"source" : [ "obj-58", 0 ]
				}

			}
, 			{
				"patchline" : 				{
					"destination" : [ "obj-67", 0 ],
					"source" : [ "obj-61", 0 ]
				}

			}
, 			{
				"patchline" : 				{
					"destination" : [ "obj-69", 0 ],
					"source" : [ "obj-62", 0 ]
				}

			}
, 			{
				"patchline" : 				{
					"destination" : [ "obj-15", 0 ],
					"midpoints" : [ 487.599976, 1070.93335, 620.599976, 1070.93335 ],
					"source" : [ "obj-64", 0 ]
				}

			}
, 			{
				"patchline" : 				{
					"destination" : [ "obj-15", 0 ],
					"midpoints" : [ 487.599976, 1089.43335, 620.599976, 1089.43335 ],
					"source" : [ "obj-65", 0 ]
				}

			}
, 			{
				"patchline" : 				{
					"destination" : [ "obj-15", 0 ],
					"midpoints" : [ 487.599976, 1109.833374, 620.599976, 1109.833374 ],
					"source" : [ "obj-66", 0 ]
				}

			}
, 			{
				"patchline" : 				{
					"destination" : [ "obj-15", 0 ],
					"source" : [ "obj-67", 0 ]
				}

			}
, 			{
				"patchline" : 				{
					"destination" : [ "obj-15", 0 ],
					"source" : [ "obj-68", 0 ]
				}

			}
, 			{
				"patchline" : 				{
					"destination" : [ "obj-61", 0 ],
					"order" : 1,
					"source" : [ "obj-69", 0 ]
				}

			}
, 			{
				"patchline" : 				{
					"destination" : [ "obj-70", 0 ],
					"order" : 0,
					"source" : [ "obj-69", 0 ]
				}

			}
, 			{
				"patchline" : 				{
					"destination" : [ "obj-68", 0 ],
					"source" : [ "obj-70", 1 ]
				}

			}
, 			{
				"patchline" : 				{
					"destination" : [ "obj-70", 0 ],
					"midpoints" : [ 680.599976, 1356.5, 519.049988, 1356.5, 519.049988, 1117.5, 358.5, 1117.5 ],
					"source" : [ "obj-71", 0 ]
				}

			}
, 			{
				"patchline" : 				{
					"destination" : [ "obj-71", 0 ],
					"source" : [ "obj-72", 0 ]
				}

			}
, 			{
				"patchline" : 				{
					"destination" : [ "obj-72", 0 ],
					"source" : [ "obj-73", 0 ]
				}

			}
, 			{
				"patchline" : 				{
					"destination" : [ "obj-27", 0 ],
					"source" : [ "obj-8", 0 ]
				}

			}
, 			{
				"patchline" : 				{
					"destination" : [ "obj-17", 0 ],
					"source" : [ "obj-9", 0 ]
				}

			}
 ],
		"dependency_cache" : [ 			{
				"name" : "valveUI01.maxpat",
				"bootpath" : "~/Documents/Max 7/Projects/FoamController/FoamController/patchers",
				"patcherrelativepath" : ".",
				"type" : "JSON",
				"implicit" : 1
			}
, 			{
				"name" : "timeManager.maxpat",
				"bootpath" : "~/Documents/Max 7/Projects/FoamController/FoamController/patchers",
				"patcherrelativepath" : ".",
				"type" : "JSON",
				"implicit" : 1
			}
, 			{
				"name" : "valveUI00.maxpat",
				"bootpath" : "~/Documents/Max 7/Projects/FoamController/FoamController/patchers",
				"patcherrelativepath" : ".",
				"type" : "JSON",
				"implicit" : 1
			}
, 			{
				"name" : "pumps.maxpat",
				"bootpath" : "~/Documents/Max 7/Projects/FoamController/FoamController/patchers",
				"patcherrelativepath" : ".",
				"type" : "JSON",
				"implicit" : 1
			}
, 			{
				"name" : "solenoidValves00.maxpat",
				"bootpath" : "~/Documents/Max 7/Projects/FoamController/FoamController/patchers",
				"patcherrelativepath" : ".",
				"type" : "JSON",
				"implicit" : 1
			}
, 			{
				"name" : "solenoidValves01.maxpat",
				"bootpath" : "~/Documents/Max 7/Projects/FoamController/FoamController/patchers",
				"patcherrelativepath" : ".",
				"type" : "JSON",
				"implicit" : 1
			}
, 			{
				"name" : "solenoidValves02.maxpat",
				"bootpath" : "~/Documents/Max 7/Projects/FoamController/FoamController/patchers",
				"patcherrelativepath" : ".",
				"type" : "JSON",
				"implicit" : 1
			}
, 			{
				"name" : "solenoidValves03.maxpat",
				"bootpath" : "~/Documents/Max 7/Projects/FoamController/FoamController/patchers",
				"patcherrelativepath" : ".",
				"type" : "JSON",
				"implicit" : 1
			}
, 			{
				"name" : "valveUI02.maxpat",
				"bootpath" : "~/Documents/Max 7/Projects/FoamController/FoamController/patchers",
				"patcherrelativepath" : ".",
				"type" : "JSON",
				"implicit" : 1
			}
, 			{
				"name" : "valveUI03.maxpat",
				"bootpath" : "~/Documents/Max 7/Projects/FoamController/FoamController/patchers",
				"patcherrelativepath" : ".",
				"type" : "JSON",
				"implicit" : 1
			}
 ],
		"autosave" : 0,
		"styles" : [ 			{
				"name" : "AudioStatus_Menu",
				"default" : 				{
					"bgfillcolor" : 					{
						"type" : "color",
						"color" : [ 0.294118, 0.313726, 0.337255, 1 ],
						"color1" : [ 0.454902, 0.462745, 0.482353, 0.0 ],
						"color2" : [ 0.290196, 0.309804, 0.301961, 1.0 ],
						"angle" : 270.0,
						"proportion" : 0.39,
						"autogradient" : 0
					}

				}
,
				"parentstyle" : "",
				"multi" : 0
			}
, 			{
				"name" : "Luca",
				"default" : 				{
					"bgcolor" : [ 0.904179, 0.895477, 0.842975, 0.56 ],
					"bgfillcolor" : 					{
						"type" : "gradient",
						"color" : [ 0.290196, 0.309804, 0.301961, 1.0 ],
						"color1" : [ 0.862745, 0.870588, 0.878431, 1.0 ],
						"color2" : [ 0.65098, 0.666667, 0.662745, 1.0 ],
						"angle" : 270.0,
						"proportion" : 0.39,
						"autogradient" : 0
					}
,
					"accentcolor" : [ 0.32549, 0.345098, 0.372549, 1.0 ],
					"fontname" : [ "Open Sans Semibold" ],
					"color" : [ 0.475135, 0.293895, 0.251069, 1.0 ],
					"elementcolor" : [ 0.786675, 0.801885, 0.845022, 1.0 ],
					"textcolor_inverse" : [ 0.239216, 0.254902, 0.278431, 1.0 ],
					"selectioncolor" : [ 0.720698, 0.16723, 0.080014, 1.0 ]
				}
,
				"parentstyle" : "",
				"multi" : 0
			}
, 			{
				"name" : "Tomoya",
				"default" : 				{
					"bgcolor" : [ 0.285714, 0.256629, 0.217237, 1.0 ],
					"bgfillcolor" : 					{
						"type" : "color",
						"color" : [ 0.870588, 0.415686, 0.062745, 1.0 ],
						"color1" : [ 0.952941, 0.564706, 0.098039, 1.0 ],
						"color2" : [ 0.960784, 0.827451, 0.156863, 1.0 ],
						"angle" : 270.0,
						"proportion" : 0.39,
						"autogradient" : 0
					}
,
					"fontname" : [ "Lucida Grande" ],
					"textcolor" : [ 0.011765, 0.396078, 0.752941, 1.0 ],
					"color" : [ 0.941176, 0.690196, 0.196078, 1.0 ],
					"elementcolor" : [ 0.786675, 0.801885, 0.845022, 1.0 ],
					"textcolor_inverse" : [ 0.541176, 0.815686, 0.913725, 1.0 ],
					"selectioncolor" : [ 0.905882, 0.797584, 0.522994, 1.0 ],
					"patchlinecolor" : [ 0.317647, 0.654902, 0.976471, 0.9 ]
				}
,
				"parentstyle" : "",
				"multi" : 0
			}
, 			{
				"name" : "new-default15",
				"default" : 				{
					"fontsize" : [ 20.0 ]
				}
,
				"parentstyle" : "default",
				"multi" : 0
			}
, 			{
				"name" : "newobjBlue-1",
				"default" : 				{
					"accentcolor" : [ 0.317647, 0.654902, 0.976471, 1.0 ]
				}
,
				"parentstyle" : "",
				"multi" : 0
			}
, 			{
				"name" : "newobjYellow-1",
				"default" : 				{
					"accentcolor" : [ 0.82517, 0.78181, 0.059545, 1.0 ],
					"fontsize" : [ 12.059008 ]
				}
,
				"parentstyle" : "",
				"multi" : 0
			}
 ]
	}

}
