{
	"patcher" : 	{
		"fileversion" : 1,
		"appversion" : 		{
			"major" : 7,
			"minor" : 3,
			"revision" : 6,
			"architecture" : "x86",
			"modernui" : 1
		}
,
		"rect" : [ 34.0, 79.0, 1372.0, 787.0 ],
		"bglocked" : 0,
		"openinpresentation" : 1,
		"default_fontsize" : 12.0,
		"default_fontface" : 0,
		"default_fontname" : "Arial",
		"gridonopen" : 1,
		"gridsize" : [ 15.0, 15.0 ],
		"gridsnaponopen" : 1,
		"objectsnaponopen" : 1,
		"statusbarvisible" : 2,
		"toolbarvisible" : 1,
		"lefttoolbarpinned" : 0,
		"toptoolbarpinned" : 0,
		"righttoolbarpinned" : 0,
		"bottomtoolbarpinned" : 0,
		"toolbars_unpinned_last_save" : 0,
		"tallnewobj" : 0,
		"boxanimatetime" : 200,
		"enablehscroll" : 1,
		"enablevscroll" : 1,
		"devicewidth" : 0.0,
		"description" : "",
		"digest" : "",
		"tags" : "",
		"style" : "default",
		"subpatcher_template" : "",
		"boxes" : [ 			{
				"box" : 				{
					"bgcolor" : [ 0.960784, 0.827451, 0.156863, 1.0 ],
					"id" : "obj-9",
					"maxclass" : "led",
					"numinlets" : 1,
					"numoutlets" : 1,
					"offcolor" : [ 0.32549, 0.345098, 0.372549, 1.0 ],
					"oncolor" : [ 0.784314, 0.145098, 0.023529, 1.0 ],
					"outlettype" : [ "int" ],
					"parameter_enable" : 0,
					"patching_rect" : [ 1825.616699, 685.483521, 72.683105, 72.683105 ],
					"presentation" : 1,
					"presentation_rect" : [ 1452.524902, 509.0, 72.683105, 72.683105 ],
					"style" : ""
				}

			}
, 			{
				"box" : 				{
					"id" : "obj-4",
					"maxclass" : "newobj",
					"numinlets" : 3,
					"numoutlets" : 3,
					"outlettype" : [ "", "", "" ],
					"patcher" : 					{
						"fileversion" : 1,
						"appversion" : 						{
							"major" : 7,
							"minor" : 3,
							"revision" : 6,
							"architecture" : "x86",
							"modernui" : 1
						}
,
						"rect" : [ -108.0, 169.0, 752.0, 469.0 ],
						"bglocked" : 0,
						"openinpresentation" : 0,
						"default_fontsize" : 12.0,
						"default_fontface" : 0,
						"default_fontname" : "Arial",
						"gridonopen" : 1,
						"gridsize" : [ 15.0, 15.0 ],
						"gridsnaponopen" : 1,
						"objectsnaponopen" : 1,
						"statusbarvisible" : 2,
						"toolbarvisible" : 1,
						"lefttoolbarpinned" : 0,
						"toptoolbarpinned" : 0,
						"righttoolbarpinned" : 0,
						"bottomtoolbarpinned" : 0,
						"toolbars_unpinned_last_save" : 0,
						"tallnewobj" : 0,
						"boxanimatetime" : 200,
						"enablehscroll" : 1,
						"enablevscroll" : 1,
						"devicewidth" : 0.0,
						"description" : "",
						"digest" : "",
						"tags" : "",
						"style" : "",
						"subpatcher_template" : "",
						"visible" : 1,
						"boxes" : [ 							{
								"box" : 								{
									"bubbleside" : 3,
									"id" : "obj-4",
									"maxclass" : "comment",
									"numinlets" : 1,
									"numoutlets" : 0,
									"patching_rect" : [ 1161.783203, 511.166565, 43.46666, 20.0 ],
									"style" : "",
									"text" : "preset"
								}

							}
, 							{
								"box" : 								{
									"comment" : "",
									"id" : "obj-55",
									"index" : 3,
									"maxclass" : "inlet",
									"numinlets" : 0,
									"numoutlets" : 1,
									"outlettype" : [ "int" ],
									"patching_rect" : [ 1201.333496, 538.266602, 30.0, 30.0 ],
									"style" : ""
								}

							}
, 							{
								"box" : 								{
									"comment" : "",
									"id" : "obj-52",
									"index" : 2,
									"maxclass" : "inlet",
									"numinlets" : 0,
									"numoutlets" : 1,
									"outlettype" : [ "int" ],
									"patching_rect" : [ 1135.56665, 538.266602, 30.0, 30.0 ],
									"style" : ""
								}

							}
, 							{
								"box" : 								{
									"comment" : "",
									"id" : "obj-51",
									"index" : 3,
									"maxclass" : "outlet",
									"numinlets" : 1,
									"numoutlets" : 0,
									"patching_rect" : [ 1201.333496, 476.833221, 30.0, 30.0 ],
									"style" : ""
								}

							}
, 							{
								"box" : 								{
									"bubbleside" : 3,
									"id" : "obj-53",
									"maxclass" : "comment",
									"numinlets" : 1,
									"numoutlets" : 0,
									"patching_rect" : [ 958.783203, 637.058228, 159.46666, 20.0 ],
									"style" : "",
									"text" : "解除したら直前の値に戻す"
								}

							}
, 							{
								"box" : 								{
									"id" : "obj-35",
									"maxclass" : "newobj",
									"numinlets" : 2,
									"numoutlets" : 2,
									"outlettype" : [ "bang", "" ],
									"patching_rect" : [ 1135.56665, 602.891602, 43.0, 22.0 ],
									"style" : "",
									"text" : "sel 24"
								}

							}
, 							{
								"box" : 								{
									"id" : "obj-46",
									"maxclass" : "message",
									"numinlets" : 2,
									"numoutlets" : 1,
									"outlettype" : [ "" ],
									"patching_rect" : [ 1145.56665, 637.058228, 33.0, 22.0 ],
									"style" : "",
									"text" : "1"
								}

							}
, 							{
								"box" : 								{
									"id" : "obj-81",
									"maxclass" : "message",
									"numinlets" : 2,
									"numoutlets" : 1,
									"outlettype" : [ "" ],
									"patching_rect" : [ 1201.33374, 637.058228, 29.5, 22.0 ],
									"style" : "",
									"text" : "24"
								}

							}
, 							{
								"box" : 								{
									"id" : "obj-57",
									"maxclass" : "newobj",
									"numinlets" : 2,
									"numoutlets" : 2,
									"outlettype" : [ "bang", "" ],
									"patching_rect" : [ 1201.33374, 602.891602, 36.0, 22.0 ],
									"style" : "",
									"text" : "sel 0"
								}

							}
, 							{
								"box" : 								{
									"id" : "obj-20",
									"maxclass" : "newobj",
									"numinlets" : 1,
									"numoutlets" : 1,
									"outlettype" : [ "" ],
									"patching_rect" : [ 846.966309, 321.233246, 105.0, 22.0 ],
									"saved_object_attributes" : 									{
										"client_rect" : [ 4, 44, 358, 172 ],
										"parameter_enable" : 0,
										"storage_rect" : [ 583, 69, 1034, 197 ]
									}
,
									"style" : "",
									"text" : "pattrstorage store",
									"varname" : "store"
								}

							}
, 							{
								"box" : 								{
									"id" : "obj-25",
									"maxclass" : "message",
									"numinlets" : 2,
									"numoutlets" : 1,
									"outlettype" : [ "" ],
									"patching_rect" : [ 939.599487, 272.83316, 58.0, 22.0 ],
									"presentation" : 1,
									"presentation_rect" : [ 158.016602, 442.833374, 58.0, 22.0 ],
									"style" : "",
									"text" : "writejson"
								}

							}
, 							{
								"box" : 								{
									"id" : "obj-23",
									"maxclass" : "message",
									"numinlets" : 2,
									"numoutlets" : 1,
									"outlettype" : [ "" ],
									"patching_rect" : [ 846.966309, 272.83316, 79.0, 22.0 ],
									"presentation" : 1,
									"presentation_rect" : [ 158.016602, 509.164429, 79.0, 22.0 ],
									"style" : "",
									"text" : "clientwindow"
								}

							}
, 							{
								"box" : 								{
									"bubbleside" : 0,
									"id" : "obj-38",
									"linecount" : 4,
									"maxclass" : "comment",
									"numinlets" : 1,
									"numoutlets" : 0,
									"patching_rect" : [ 1390.217041, 281.999847, 152.399933, 59.0 ],
									"style" : "",
									"text" : "泡がある程度成長したら，通常は1番，開館延長時は2番に保存されたパターンを呼び出す．"
								}

							}
, 							{
								"box" : 								{
									"id" : "obj-37",
									"maxclass" : "message",
									"numinlets" : 2,
									"numoutlets" : 1,
									"outlettype" : [ "" ],
									"patching_rect" : [ 1279.333496, 346.166534, 24.0, 22.0 ],
									"style" : "",
									"text" : "2"
								}

							}
, 							{
								"box" : 								{
									"id" : "obj-27",
									"maxclass" : "button",
									"numinlets" : 1,
									"numoutlets" : 1,
									"outlettype" : [ "bang" ],
									"patching_rect" : [ 1279.333496, 312.33316, 24.0, 24.0 ],
									"style" : ""
								}

							}
, 							{
								"box" : 								{
									"id" : "obj-11",
									"maxclass" : "newobj",
									"numinlets" : 0,
									"numoutlets" : 1,
									"outlettype" : [ "" ],
									"patching_rect" : [ 1279.333496, 281.999847, 93.0, 22.0 ],
									"style" : "",
									"text" : "r startExhibition"
								}

							}
, 							{
								"box" : 								{
									"id" : "obj-40",
									"maxclass" : "newobj",
									"numinlets" : 2,
									"numoutlets" : 1,
									"outlettype" : [ "bang" ],
									"patching_rect" : [ 1298.616943, 190.474274, 76.0, 22.0 ],
									"style" : "",
									"text" : "delay 20000"
								}

							}
, 							{
								"box" : 								{
									"bubbleside" : 3,
									"id" : "obj-50",
									"linecount" : 3,
									"maxclass" : "comment",
									"numinlets" : 1,
									"numoutlets" : 0,
									"patching_rect" : [ 1390.217041, 190.474274, 224.800003, 45.0 ],
									"style" : "",
									"text" : "アプリ起動直後，値がロードされても，通信の準備が整っていないとArduinoに送られないので，明示的に再送する．"
								}

							}
, 							{
								"box" : 								{
									"bubble" : 1,
									"bubbleside" : 2,
									"fontface" : 1,
									"fontsize" : 18.0,
									"id" : "obj-76",
									"maxclass" : "comment",
									"numinlets" : 1,
									"numoutlets" : 0,
									"patching_rect" : [ 846.966309, 90.166534, 162.5, 46.0 ],
									"presentation" : 1,
									"presentation_rect" : [ 102.016602, 308.35675, 150.5, 46.0 ],
									"style" : "",
									"text" : "パターン保存",
									"textjustification" : 1
								}

							}
, 							{
								"box" : 								{
									"id" : "obj-12",
									"maxclass" : "newobj",
									"numinlets" : 2,
									"numoutlets" : 1,
									"outlettype" : [ "bang" ],
									"patching_rect" : [ 1200.333496, 190.474274, 69.0, 22.0 ],
									"style" : "",
									"text" : "delay 1000"
								}

							}
, 							{
								"box" : 								{
									"id" : "obj-422",
									"maxclass" : "message",
									"numinlets" : 2,
									"numoutlets" : 1,
									"outlettype" : [ "" ],
									"patching_rect" : [ 1200.333496, 241.1409, 29.5, 22.0 ],
									"style" : "",
									"text" : "17"
								}

							}
, 							{
								"box" : 								{
									"id" : "obj-13",
									"maxclass" : "newobj",
									"numinlets" : 1,
									"numoutlets" : 1,
									"outlettype" : [ "bang" ],
									"patching_rect" : [ 1171.533447, 90.166534, 60.0, 22.0 ],
									"style" : "",
									"text" : "loadbang"
								}

							}
, 							{
								"box" : 								{
									"bubble" : 1,
									"id" : "obj-21",
									"linecount" : 2,
									"maxclass" : "comment",
									"numinlets" : 1,
									"numoutlets" : 0,
									"patching_rect" : [ 1390.217041, 416.033295, 172.0, 36.0 ],
									"presentation" : 1,
									"presentation_linecount" : 2,
									"presentation_rect" : [ 262.94165, 536.795532, 172.0, 36.0 ],
									"style" : "",
									"text" : "番号入力+Enterでパターンを削除"
								}

							}
, 							{
								"box" : 								{
									"id" : "obj-17",
									"maxclass" : "newobj",
									"numinlets" : 2,
									"numoutlets" : 1,
									"outlettype" : [ "" ],
									"patching_rect" : [ 1279.333496, 455.499969, 69.0, 22.0 ],
									"style" : "",
									"text" : "pak clear 0"
								}

							}
, 							{
								"box" : 								{
									"id" : "obj-14",
									"maxclass" : "number",
									"numinlets" : 1,
									"numoutlets" : 2,
									"outlettype" : [ "", "bang" ],
									"parameter_enable" : 0,
									"patching_rect" : [ 1329.333496, 416.033295, 50.0, 22.0 ],
									"presentation" : 1,
									"presentation_rect" : [ 158.016602, 543.795532, 50.0, 22.0 ],
									"style" : ""
								}

							}
, 							{
								"box" : 								{
									"id" : "obj-15",
									"maxclass" : "message",
									"numinlets" : 2,
									"numoutlets" : 1,
									"outlettype" : [ "" ],
									"patching_rect" : [ 1279.333496, 416.033295, 37.0, 22.0 ],
									"style" : "",
									"text" : "clear"
								}

							}
, 							{
								"box" : 								{
									"bubble" : 1,
									"bubbleside" : 2,
									"id" : "obj-24",
									"maxclass" : "comment",
									"numinlets" : 1,
									"numoutlets" : 0,
									"patching_rect" : [ 806.466309, 227.933304, 160.0, 39.0 ],
									"presentation" : 1,
									"presentation_rect" : [ 262.94165, 509.164429, 160.0, 39.0 ],
									"style" : "",
									"text" : "保存されている値を確認"
								}

							}
, 							{
								"box" : 								{
									"bubble" : 1,
									"id" : "obj-26",
									"linecount" : 2,
									"maxclass" : "comment",
									"numinlets" : 1,
									"numoutlets" : 0,
									"patching_rect" : [ 1009.966309, 265.83316, 156.466766, 36.0 ],
									"presentation" : 1,
									"presentation_linecount" : 2,
									"presentation_rect" : [ 262.94165, 433.307739, 156.466766, 36.0 ],
									"style" : "",
									"text" : "jsonファイルにパターンを書き込み"
								}

							}
, 							{
								"box" : 								{
									"id" : "obj-36",
									"maxclass" : "message",
									"numinlets" : 2,
									"numoutlets" : 1,
									"outlettype" : [ "" ],
									"patching_rect" : [ 1171.533447, 124.866608, 105.0, 22.0 ],
									"presentation" : 1,
									"presentation_rect" : [ 158.016602, 381.533386, 105.0, 22.0 ],
									"style" : "",
									"text" : "pattrstorage store"
								}

							}
, 							{
								"box" : 								{
									"bgmode" : 0,
									"border" : 0,
									"clickthrough" : 0,
									"enablehscroll" : 0,
									"enablevscroll" : 0,
									"id" : "obj-47",
									"lockeddragscroll" : 0,
									"maxclass" : "bpatcher",
									"name" : "timeManager.maxpat",
									"numinlets" : 0,
									"numoutlets" : 1,
									"offset" : [ 0.0, -10.0 ],
									"outlettype" : [ "" ],
									"patching_rect" : [ 57.166656, 90.166534, 321.000061, 124.666679 ],
									"presentation" : 1,
									"presentation_rect" : [ 94.841553, 85.581131, 318.212463, 131.633347 ],
									"varname" : "timeManager",
									"viewvisibility" : 1
								}

							}
, 							{
								"box" : 								{
									"comment" : "",
									"id" : "obj-3",
									"index" : 1,
									"maxclass" : "inlet",
									"numinlets" : 0,
									"numoutlets" : 1,
									"outlettype" : [ "" ],
									"patching_rect" : [ 534.766846, 526.099854, 30.0, 30.0 ],
									"style" : ""
								}

							}
, 							{
								"box" : 								{
									"comment" : "",
									"id" : "obj-2",
									"index" : 1,
									"maxclass" : "outlet",
									"numinlets" : 1,
									"numoutlets" : 0,
									"patching_rect" : [ 57.166656, 242.099945, 30.0, 30.0 ],
									"style" : ""
								}

							}
, 							{
								"box" : 								{
									"comment" : "",
									"id" : "obj-1",
									"index" : 2,
									"maxclass" : "outlet",
									"numinlets" : 1,
									"numoutlets" : 0,
									"patching_rect" : [ 474.099884, 526.099854, 30.0, 30.0 ],
									"style" : ""
								}

							}
, 							{
								"box" : 								{
									"id" : "obj-33",
									"maxclass" : "message",
									"numinlets" : 2,
									"numoutlets" : 1,
									"outlettype" : [ "" ],
									"patching_rect" : [ 184.166656, 576.866455, 37.0, 22.0 ],
									"style" : "",
									"text" : "clear"
								}

							}
, 							{
								"box" : 								{
									"bubble" : 1,
									"bubbleside" : 2,
									"fontface" : 1,
									"fontsize" : 18.0,
									"id" : "obj-78",
									"maxclass" : "comment",
									"numinlets" : 1,
									"numoutlets" : 0,
									"patching_rect" : [ 57.166656, 346.166534, 162.5, 46.0 ],
									"presentation" : 1,
									"presentation_rect" : [ 99.524902, 685.023438, 150.5, 46.0 ],
									"style" : "",
									"text" : "デバッグ",
									"textjustification" : 1
								}

							}
, 							{
								"box" : 								{
									"bubble" : 1,
									"id" : "obj-75",
									"maxclass" : "comment",
									"numinlets" : 1,
									"numoutlets" : 0,
									"patching_rect" : [ 212.083527, 540.866455, 208.0, 24.0 ],
									"presentation" : 1,
									"presentation_linecount" : 2,
									"presentation_rect" : [ 189.916626, 757.999939, 192.600006, 36.0 ],
									"style" : "",
									"text" : "使用可能なポートの一覧を取得．"
								}

							}
, 							{
								"box" : 								{
									"id" : "obj-61",
									"maxclass" : "newobj",
									"numinlets" : 2,
									"numoutlets" : 1,
									"outlettype" : [ "bang" ],
									"patching_rect" : [ 57.166656, 611.866455, 63.0, 22.0 ],
									"style" : "",
									"text" : "delay 500"
								}

							}
, 							{
								"box" : 								{
									"id" : "obj-62",
									"maxclass" : "button",
									"numinlets" : 1,
									"numoutlets" : 1,
									"outlettype" : [ "bang" ],
									"patching_rect" : [ 131.166656, 540.866455, 24.0, 24.0 ],
									"presentation" : 1,
									"presentation_rect" : [ 158.016602, 763.999939, 24.0, 24.0 ],
									"style" : ""
								}

							}
, 							{
								"box" : 								{
									"id" : "obj-67",
									"maxclass" : "message",
									"numinlets" : 2,
									"numoutlets" : 1,
									"outlettype" : [ "" ],
									"patching_rect" : [ 57.166656, 644.866455, 34.0, 22.0 ],
									"style" : "",
									"text" : "print"
								}

							}
, 							{
								"box" : 								{
									"id" : "obj-68",
									"maxclass" : "newobj",
									"numinlets" : 1,
									"numoutlets" : 1,
									"outlettype" : [ "" ],
									"patching_rect" : [ 202.166656, 644.866455, 82.0, 22.0 ],
									"style" : "",
									"text" : "prepend port"
								}

							}
, 							{
								"box" : 								{
									"id" : "obj-69",
									"maxclass" : "message",
									"numinlets" : 2,
									"numoutlets" : 1,
									"outlettype" : [ "" ],
									"patching_rect" : [ 131.166656, 576.866455, 37.0, 22.0 ],
									"style" : "",
									"text" : "clear"
								}

							}
, 							{
								"box" : 								{
									"id" : "obj-70",
									"items" : [ "Bluetooth-Incoming-Port", ",", "usbmodem14101" ],
									"maxclass" : "umenu",
									"numinlets" : 1,
									"numoutlets" : 3,
									"outlettype" : [ "int", "", "" ],
									"parameter_enable" : 0,
									"patching_rect" : [ 131.166656, 611.866455, 161.0, 22.0 ],
									"presentation" : 1,
									"presentation_rect" : [ 158.016602, 801.999939, 161.0, 22.0 ],
									"style" : ""
								}

							}
, 							{
								"box" : 								{
									"id" : "obj-71",
									"maxclass" : "newobj",
									"numinlets" : 1,
									"numoutlets" : 1,
									"outlettype" : [ "" ],
									"patching_rect" : [ 534.766846, 642.33313, 98.0, 22.0 ],
									"style" : "",
									"text" : "prepend append"
								}

							}
, 							{
								"box" : 								{
									"id" : "obj-72",
									"maxclass" : "newobj",
									"numinlets" : 1,
									"numoutlets" : 1,
									"outlettype" : [ "" ],
									"patching_rect" : [ 534.766846, 610.499878, 27.0, 22.0 ],
									"style" : "",
									"text" : "iter"
								}

							}
, 							{
								"box" : 								{
									"id" : "obj-73",
									"maxclass" : "newobj",
									"numinlets" : 2,
									"numoutlets" : 2,
									"outlettype" : [ "", "" ],
									"patching_rect" : [ 534.766846, 578.999878, 62.0, 22.0 ],
									"style" : "",
									"text" : "route port"
								}

							}
, 							{
								"box" : 								{
									"id" : "obj-32",
									"maxclass" : "newobj",
									"numinlets" : 2,
									"numoutlets" : 2,
									"outlettype" : [ "bang", "" ],
									"patching_rect" : [ 174.166656, 449.83316, 36.0, 22.0 ],
									"style" : "",
									"text" : "sel 1"
								}

							}
, 							{
								"box" : 								{
									"id" : "obj-31",
									"maxclass" : "newobj",
									"numinlets" : 2,
									"numoutlets" : 2,
									"outlettype" : [ "bang", "" ],
									"patching_rect" : [ 131.166656, 449.83316, 36.0, 22.0 ],
									"style" : "",
									"text" : "sel 0"
								}

							}
, 							{
								"box" : 								{
									"id" : "obj-10",
									"maxclass" : "message",
									"numinlets" : 2,
									"numoutlets" : 1,
									"outlettype" : [ "" ],
									"patching_rect" : [ 131.166656, 479.166412, 41.0, 22.0 ],
									"style" : "",
									"text" : "77 77"
								}

							}
, 							{
								"box" : 								{
									"id" : "obj-19",
									"maxclass" : "message",
									"numinlets" : 2,
									"numoutlets" : 1,
									"outlettype" : [ "" ],
									"patching_rect" : [ 174.166656, 479.166412, 44.0, 22.0 ],
									"style" : "",
									"text" : "88 88"
								}

							}
, 							{
								"box" : 								{
									"bubble" : 1,
									"id" : "obj-29",
									"linecount" : 4,
									"maxclass" : "comment",
									"numinlets" : 1,
									"numoutlets" : 0,
									"patching_rect" : [ 230.250214, 438.166412, 189.833344, 63.0 ],
									"presentation" : 1,
									"presentation_linecount" : 3,
									"presentation_rect" : [ 189.916626, 831.664429, 200.0, 50.0 ],
									"style" : "",
									"text" : "遠隔のデバッグ用．\nArduino IDEのシリアルモニタに\n値を出力する．"
								}

							}
, 							{
								"box" : 								{
									"id" : "obj-28",
									"maxclass" : "toggle",
									"numinlets" : 1,
									"numoutlets" : 1,
									"outlettype" : [ "int" ],
									"parameter_enable" : 0,
									"patching_rect" : [ 131.166656, 414.966461, 24.0, 24.0 ],
									"presentation" : 1,
									"presentation_rect" : [ 158.016602, 844.664429, 24.0, 24.0 ],
									"style" : ""
								}

							}
 ],
						"lines" : [ 							{
								"patchline" : 								{
									"destination" : [ "obj-1", 0 ],
									"midpoints" : [ 140.666656, 513.133118, 483.599884, 513.133118 ],
									"source" : [ "obj-10", 0 ]
								}

							}
, 							{
								"patchline" : 								{
									"destination" : [ "obj-27", 0 ],
									"order" : 1,
									"source" : [ "obj-11", 0 ]
								}

							}
, 							{
								"patchline" : 								{
									"destination" : [ "obj-37", 1 ],
									"order" : 0,
									"source" : [ "obj-11", 0 ]
								}

							}
, 							{
								"patchline" : 								{
									"destination" : [ "obj-40", 0 ],
									"order" : 0,
									"source" : [ "obj-12", 0 ]
								}

							}
, 							{
								"patchline" : 								{
									"destination" : [ "obj-422", 0 ],
									"order" : 1,
									"source" : [ "obj-12", 0 ]
								}

							}
, 							{
								"patchline" : 								{
									"destination" : [ "obj-12", 0 ],
									"midpoints" : [ 1181.033447, 170.516571, 1209.833496, 170.516571 ],
									"order" : 0,
									"source" : [ "obj-13", 0 ]
								}

							}
, 							{
								"patchline" : 								{
									"destination" : [ "obj-36", 0 ],
									"order" : 1,
									"source" : [ "obj-13", 0 ]
								}

							}
, 							{
								"patchline" : 								{
									"destination" : [ "obj-17", 1 ],
									"source" : [ "obj-14", 0 ]
								}

							}
, 							{
								"patchline" : 								{
									"destination" : [ "obj-17", 0 ],
									"source" : [ "obj-15", 0 ]
								}

							}
, 							{
								"patchline" : 								{
									"destination" : [ "obj-51", 0 ],
									"source" : [ "obj-17", 0 ]
								}

							}
, 							{
								"patchline" : 								{
									"destination" : [ "obj-1", 0 ],
									"midpoints" : [ 183.666656, 513.133118, 483.599884, 513.133118 ],
									"source" : [ "obj-19", 0 ]
								}

							}
, 							{
								"patchline" : 								{
									"destination" : [ "obj-20", 0 ],
									"source" : [ "obj-23", 0 ]
								}

							}
, 							{
								"patchline" : 								{
									"destination" : [ "obj-20", 0 ],
									"source" : [ "obj-25", 0 ]
								}

							}
, 							{
								"patchline" : 								{
									"destination" : [ "obj-37", 0 ],
									"source" : [ "obj-27", 0 ]
								}

							}
, 							{
								"patchline" : 								{
									"destination" : [ "obj-31", 0 ],
									"order" : 1,
									"source" : [ "obj-28", 0 ]
								}

							}
, 							{
								"patchline" : 								{
									"destination" : [ "obj-32", 0 ],
									"order" : 0,
									"source" : [ "obj-28", 0 ]
								}

							}
, 							{
								"patchline" : 								{
									"destination" : [ "obj-73", 0 ],
									"source" : [ "obj-3", 0 ]
								}

							}
, 							{
								"patchline" : 								{
									"destination" : [ "obj-10", 0 ],
									"source" : [ "obj-31", 0 ]
								}

							}
, 							{
								"patchline" : 								{
									"destination" : [ "obj-19", 0 ],
									"source" : [ "obj-32", 0 ]
								}

							}
, 							{
								"patchline" : 								{
									"destination" : [ "obj-70", 0 ],
									"source" : [ "obj-33", 0 ]
								}

							}
, 							{
								"patchline" : 								{
									"destination" : [ "obj-46", 1 ],
									"source" : [ "obj-35", 1 ]
								}

							}
, 							{
								"patchline" : 								{
									"destination" : [ "obj-51", 0 ],
									"midpoints" : [ 1181.033447, 451.849945, 1210.833496, 451.849945 ],
									"source" : [ "obj-36", 0 ]
								}

							}
, 							{
								"patchline" : 								{
									"destination" : [ "obj-51", 0 ],
									"source" : [ "obj-37", 0 ]
								}

							}
, 							{
								"patchline" : 								{
									"destination" : [ "obj-422", 0 ],
									"source" : [ "obj-40", 0 ]
								}

							}
, 							{
								"patchline" : 								{
									"destination" : [ "obj-51", 0 ],
									"source" : [ "obj-422", 0 ]
								}

							}
, 							{
								"patchline" : 								{
									"destination" : [ "obj-51", 0 ],
									"midpoints" : [ 1155.06665, 669.058228, 1185.616821, 669.058228, 1185.616821, 465.833221, 1210.833496, 465.833221 ],
									"source" : [ "obj-46", 0 ]
								}

							}
, 							{
								"patchline" : 								{
									"destination" : [ "obj-2", 0 ],
									"source" : [ "obj-47", 0 ]
								}

							}
, 							{
								"patchline" : 								{
									"destination" : [ "obj-35", 0 ],
									"source" : [ "obj-52", 0 ]
								}

							}
, 							{
								"patchline" : 								{
									"destination" : [ "obj-57", 0 ],
									"source" : [ "obj-55", 0 ]
								}

							}
, 							{
								"patchline" : 								{
									"destination" : [ "obj-46", 0 ],
									"source" : [ "obj-57", 1 ]
								}

							}
, 							{
								"patchline" : 								{
									"destination" : [ "obj-81", 0 ],
									"source" : [ "obj-57", 0 ]
								}

							}
, 							{
								"patchline" : 								{
									"destination" : [ "obj-67", 0 ],
									"source" : [ "obj-61", 0 ]
								}

							}
, 							{
								"patchline" : 								{
									"destination" : [ "obj-69", 0 ],
									"source" : [ "obj-62", 0 ]
								}

							}
, 							{
								"patchline" : 								{
									"destination" : [ "obj-1", 0 ],
									"midpoints" : [ 66.666656, 676.866455, 431.13327, 676.866455, 431.13327, 515.099854, 483.599884, 515.099854 ],
									"source" : [ "obj-67", 0 ]
								}

							}
, 							{
								"patchline" : 								{
									"destination" : [ "obj-1", 0 ],
									"midpoints" : [ 211.666656, 676.866455, 454.299927, 676.866455, 454.299927, 515.099854, 483.599884, 515.099854 ],
									"source" : [ "obj-68", 0 ]
								}

							}
, 							{
								"patchline" : 								{
									"destination" : [ "obj-61", 0 ],
									"order" : 1,
									"source" : [ "obj-69", 0 ]
								}

							}
, 							{
								"patchline" : 								{
									"destination" : [ "obj-70", 0 ],
									"order" : 0,
									"source" : [ "obj-69", 0 ]
								}

							}
, 							{
								"patchline" : 								{
									"destination" : [ "obj-68", 0 ],
									"source" : [ "obj-70", 1 ]
								}

							}
, 							{
								"patchline" : 								{
									"destination" : [ "obj-70", 0 ],
									"midpoints" : [ 544.266846, 676.33313, 326.466766, 676.33313, 326.466766, 600.866455, 140.666656, 600.866455 ],
									"source" : [ "obj-71", 0 ]
								}

							}
, 							{
								"patchline" : 								{
									"destination" : [ "obj-71", 0 ],
									"source" : [ "obj-72", 0 ]
								}

							}
, 							{
								"patchline" : 								{
									"destination" : [ "obj-72", 0 ],
									"source" : [ "obj-73", 0 ]
								}

							}
, 							{
								"patchline" : 								{
									"destination" : [ "obj-51", 0 ],
									"midpoints" : [ 1210.83374, 669.058228, 1244.833618, 669.058228, 1244.833618, 465.833221, 1210.833496, 465.833221 ],
									"source" : [ "obj-81", 0 ]
								}

							}
 ],
						"styles" : [ 							{
								"name" : "AudioStatus_Menu",
								"default" : 								{
									"bgfillcolor" : 									{
										"type" : "color",
										"color" : [ 0.294118, 0.313726, 0.337255, 1 ],
										"color1" : [ 0.454902, 0.462745, 0.482353, 0.0 ],
										"color2" : [ 0.290196, 0.309804, 0.301961, 1.0 ],
										"angle" : 270.0,
										"proportion" : 0.39,
										"autogradient" : 0
									}

								}
,
								"parentstyle" : "",
								"multi" : 0
							}
, 							{
								"name" : "Luca",
								"default" : 								{
									"bgfillcolor" : 									{
										"type" : "gradient",
										"color" : [ 0.290196, 0.309804, 0.301961, 1.0 ],
										"color1" : [ 0.862745, 0.870588, 0.878431, 1.0 ],
										"color2" : [ 0.65098, 0.666667, 0.662745, 1.0 ],
										"angle" : 270.0,
										"proportion" : 0.39,
										"autogradient" : 0
									}
,
									"accentcolor" : [ 0.32549, 0.345098, 0.372549, 1.0 ],
									"fontname" : [ "Open Sans Semibold" ],
									"elementcolor" : [ 0.786675, 0.801885, 0.845022, 1.0 ],
									"textcolor_inverse" : [ 0.239216, 0.254902, 0.278431, 1.0 ],
									"bgcolor" : [ 0.904179, 0.895477, 0.842975, 0.56 ],
									"selectioncolor" : [ 0.720698, 0.16723, 0.080014, 1.0 ],
									"color" : [ 0.475135, 0.293895, 0.251069, 1.0 ]
								}
,
								"parentstyle" : "",
								"multi" : 0
							}
, 							{
								"name" : "Tomoya",
								"default" : 								{
									"bgfillcolor" : 									{
										"type" : "color",
										"color" : [ 0.870588, 0.415686, 0.062745, 1.0 ],
										"color1" : [ 0.952941, 0.564706, 0.098039, 1.0 ],
										"color2" : [ 0.960784, 0.827451, 0.156863, 1.0 ],
										"angle" : 270.0,
										"proportion" : 0.39,
										"autogradient" : 0
									}
,
									"patchlinecolor" : [ 0.317647, 0.654902, 0.976471, 0.9 ],
									"fontname" : [ "Lucida Grande" ],
									"elementcolor" : [ 0.786675, 0.801885, 0.845022, 1.0 ],
									"textcolor" : [ 0.011765, 0.396078, 0.752941, 1.0 ],
									"textcolor_inverse" : [ 0.541176, 0.815686, 0.913725, 1.0 ],
									"bgcolor" : [ 0.285714, 0.256629, 0.217237, 1.0 ],
									"selectioncolor" : [ 0.905882, 0.797584, 0.522994, 1.0 ],
									"color" : [ 0.941176, 0.690196, 0.196078, 1.0 ]
								}
,
								"parentstyle" : "",
								"multi" : 0
							}
, 							{
								"name" : "new-default15",
								"default" : 								{
									"fontsize" : [ 20.0 ]
								}
,
								"parentstyle" : "default",
								"multi" : 0
							}
, 							{
								"name" : "newobjBlue-1",
								"default" : 								{
									"accentcolor" : [ 0.317647, 0.654902, 0.976471, 1.0 ]
								}
,
								"parentstyle" : "",
								"multi" : 0
							}
, 							{
								"name" : "newobjYellow-1",
								"default" : 								{
									"fontsize" : [ 12.059008 ],
									"accentcolor" : [ 0.82517, 0.78181, 0.059545, 1.0 ]
								}
,
								"parentstyle" : "",
								"multi" : 0
							}
 ]
					}
,
					"patching_rect" : [ 1721.616699, 1250.166748, 123.0, 22.0 ],
					"presentation" : 1,
					"presentation_rect" : [ 1258.566528, 1086.0, 123.0, 22.0 ],
					"saved_object_attributes" : 					{
						"description" : "",
						"digest" : "",
						"globalpatchername" : "",
						"style" : "",
						"tags" : ""
					}
,
					"style" : "",
					"text" : "patcher maintenance",
					"varname" : "patcher"
				}

			}
, 			{
				"box" : 				{
					"id" : "obj-49",
					"maxclass" : "newobj",
					"numinlets" : 1,
					"numoutlets" : 1,
					"outlettype" : [ "" ],
					"patching_rect" : [ 1825.616699, 647.391785, 72.0, 22.0 ],
					"style" : "",
					"text" : "loadmess 1"
				}

			}
, 			{
				"box" : 				{
					"bubble" : 1,
					"bubbleside" : 3,
					"fontface" : 1,
					"fontsize" : 18.0,
					"id" : "obj-45",
					"maxclass" : "comment",
					"numinlets" : 1,
					"numoutlets" : 0,
					"patching_rect" : [ 1651.833252, 706.325073, 162.5, 31.0 ],
					"presentation" : 1,
					"presentation_rect" : [ 1265.016602, 529.841553, 162.5, 31.0 ],
					"style" : "",
					"text" : "停止",
					"textjustification" : 1
				}

			}
, 			{
				"box" : 				{
					"id" : "obj-26",
					"maxclass" : "button",
					"numinlets" : 1,
					"numoutlets" : 1,
					"outlettype" : [ "bang" ],
					"patching_rect" : [ 189.0, 213.333313, 24.0, 24.0 ],
					"style" : ""
				}

			}
, 			{
				"box" : 				{
					"bubble" : 1,
					"id" : "obj-3",
					"linecount" : 2,
					"maxclass" : "comment",
					"numinlets" : 1,
					"numoutlets" : 0,
					"patching_rect" : [ 1903.966187, 508.833252, 172.0, 36.0 ],
					"presentation" : 1,
					"presentation_linecount" : 2,
					"presentation_rect" : [ 1369.94165, 410.497803, 172.0, 36.0 ],
					"style" : "",
					"text" : "数字をクリックしてパターン呼び出す"
				}

			}
, 			{
				"box" : 				{
					"bubblesize" : 16,
					"id" : "obj-34",
					"maxclass" : "preset",
					"numinlets" : 1,
					"numoutlets" : 4,
					"outlettype" : [ "preset", "int", "preset", "int" ],
					"patching_rect" : [ 1724.838867, 507.833252, 165.333344, 70.500046 ],
					"presentation" : 1,
					"presentation_rect" : [ 1265.016602, 410.497803, 100.0, 40.0 ],
					"preset_data" : [ 						{
							"number" : 1,
							"data" : [ 5, "obj-321", "radiogroup", "int", 1, 5, "obj-311", "radiogroup", "int", 1, 5, "obj-303", "radiogroup", "int", 1, 5, "obj-295", "radiogroup", "int", 1, 5, "obj-287", "radiogroup", "int", 1, 5, "obj-279", "radiogroup", "int", 1, 5, "obj-271", "radiogroup", "int", 1, 5, "<invalid>", "led", "int", 1, 5, "<invalid>", "number", "int", 0 ]
						}
, 						{
							"number" : 2,
							"data" : [ 5, "obj-321", "radiogroup", "int", 1, 5, "obj-311", "radiogroup", "int", 1, 5, "obj-303", "radiogroup", "int", 1, 5, "obj-295", "radiogroup", "int", 1, 5, "obj-287", "radiogroup", "int", 1, 5, "obj-279", "radiogroup", "int", 1, 5, "obj-271", "radiogroup", "int", 1, 5, "<invalid>", "led", "int", 1, 5, "<invalid>", "number", "int", 0 ]
						}
, 						{
							"number" : 17,
							"data" : [ 5, "obj-321", "radiogroup", "int", 1, 5, "obj-311", "radiogroup", "int", 1, 5, "obj-303", "radiogroup", "int", 1, 5, "obj-295", "radiogroup", "int", 1, 5, "obj-287", "radiogroup", "int", 1, 5, "obj-279", "radiogroup", "int", 1, 5, "obj-271", "radiogroup", "int", 1, 5, "<invalid>", "led", "int", 1, 5, "<invalid>", "number", "int", 0 ]
						}
, 						{
							"number" : 24,
							"data" : [ 5, "obj-321", "radiogroup", "int", 1, 5, "obj-311", "radiogroup", "int", 1, 5, "obj-303", "radiogroup", "int", 1, 5, "obj-295", "radiogroup", "int", 1, 5, "obj-287", "radiogroup", "int", 1, 5, "obj-279", "radiogroup", "int", 1, 5, "obj-271", "radiogroup", "int", 1, 5, "<invalid>", "led", "int", 1, 5, "<invalid>", "number", "int", 0 ]
						}
 ],
					"style" : ""
				}

			}
, 			{
				"box" : 				{
					"bgmode" : 0,
					"border" : 0,
					"clickthrough" : 0,
					"enablehscroll" : 0,
					"enablevscroll" : 0,
					"id" : "obj-16",
					"lockeddragscroll" : 0,
					"maxclass" : "bpatcher",
					"name" : "valveUI03.maxpat",
					"numinlets" : 0,
					"numoutlets" : 0,
					"offset" : [ 0.0, 0.0 ],
					"patching_rect" : [ 1278.43335, 202.333313, 272.333344, 1096.0 ],
					"presentation" : 1,
					"presentation_rect" : [ 944.666687, 6.333313, 275.0, 1101.666748 ],
					"varname" : "valveUI03",
					"viewvisibility" : 1
				}

			}
, 			{
				"box" : 				{
					"bgmode" : 0,
					"border" : 0,
					"clickthrough" : 0,
					"enablehscroll" : 0,
					"enablevscroll" : 0,
					"id" : "obj-14",
					"lockeddragscroll" : 0,
					"maxclass" : "bpatcher",
					"name" : "valveUI02.maxpat",
					"numinlets" : 0,
					"numoutlets" : 0,
					"offset" : [ 0.0, 0.0 ],
					"patching_rect" : [ 1005.766602, 202.333313, 271.666687, 1096.0 ],
					"presentation" : 1,
					"presentation_rect" : [ 698.433289, 6.333313, 266.0, 1124.0 ],
					"varname" : "valveUI02",
					"viewvisibility" : 1
				}

			}
, 			{
				"box" : 				{
					"id" : "obj-15",
					"maxclass" : "newobj",
					"numinlets" : 1,
					"numoutlets" : 2,
					"outlettype" : [ "int", "" ],
					"patching_rect" : [ 86.099976, 1179.533325, 79.0, 22.0 ],
					"style" : "",
					"text" : "serial d 9600"
				}

			}
, 			{
				"box" : 				{
					"bgmode" : 0,
					"border" : 0,
					"clickthrough" : 0,
					"enablehscroll" : 0,
					"enablevscroll" : 0,
					"id" : "obj-66",
					"lockeddragscroll" : 0,
					"maxclass" : "bpatcher",
					"name" : "solenoidValves03.maxpat",
					"numinlets" : 0,
					"numoutlets" : 1,
					"offset" : [ 0.0, 0.0 ],
					"outlettype" : [ "" ],
					"patching_rect" : [ 340.099976, 1271.333252, 116.0, 27.000031 ],
					"viewvisibility" : 1
				}

			}
, 			{
				"box" : 				{
					"bgmode" : 0,
					"border" : 0,
					"clickthrough" : 0,
					"enablehscroll" : 0,
					"enablevscroll" : 0,
					"id" : "obj-65",
					"lockeddragscroll" : 0,
					"maxclass" : "bpatcher",
					"name" : "solenoidValves02.maxpat",
					"numinlets" : 0,
					"numoutlets" : 1,
					"offset" : [ 0.0, 0.0 ],
					"outlettype" : [ "" ],
					"patching_rect" : [ 340.099976, 1234.533081, 116.0, 23.0 ],
					"viewvisibility" : 1
				}

			}
, 			{
				"box" : 				{
					"bgmode" : 0,
					"border" : 0,
					"clickthrough" : 0,
					"enablehscroll" : 0,
					"enablevscroll" : 0,
					"id" : "obj-64",
					"lockeddragscroll" : 0,
					"maxclass" : "bpatcher",
					"name" : "solenoidValves01.maxpat",
					"numinlets" : 0,
					"numoutlets" : 1,
					"offset" : [ 0.0, 0.0 ],
					"outlettype" : [ "" ],
					"patching_rect" : [ 340.099976, 1197.533081, 116.0, 23.0 ],
					"viewvisibility" : 1
				}

			}
, 			{
				"box" : 				{
					"bgmode" : 0,
					"border" : 0,
					"clickthrough" : 0,
					"enablehscroll" : 0,
					"enablevscroll" : 0,
					"id" : "obj-58",
					"lockeddragscroll" : 0,
					"maxclass" : "bpatcher",
					"name" : "solenoidValves00.maxpat",
					"numinlets" : 0,
					"numoutlets" : 1,
					"offset" : [ 0.0, 0.0 ],
					"outlettype" : [ "" ],
					"patching_rect" : [ 340.099976, 1160.533203, 116.0, 23.0 ],
					"viewvisibility" : 1
				}

			}
, 			{
				"box" : 				{
					"bgmode" : 0,
					"border" : 0,
					"clickthrough" : 0,
					"enablehscroll" : 0,
					"enablevscroll" : 0,
					"id" : "obj-48",
					"lockeddragscroll" : 0,
					"maxclass" : "bpatcher",
					"name" : "pumps.maxpat",
					"numinlets" : 7,
					"numoutlets" : 1,
					"offset" : [ 0.0, 0.0 ],
					"outlettype" : [ "" ],
					"patching_rect" : [ 86.099976, 913.466736, 116.400002, 23.666718 ],
					"viewvisibility" : 1
				}

			}
, 			{
				"box" : 				{
					"bubble" : 1,
					"bubbleside" : 3,
					"fontface" : 1,
					"fontsize" : 18.0,
					"id" : "obj-44",
					"maxclass" : "comment",
					"numinlets" : 1,
					"numoutlets" : 0,
					"patching_rect" : [ 458.099976, 154.333313, 83.0, 31.0 ],
					"presentation" : 1,
					"presentation_rect" : [ 143.299988, 88.497803, 89.0, 31.0 ],
					"style" : "",
					"text" : "電磁弁",
					"textjustification" : 1
				}

			}
, 			{
				"box" : 				{
					"bubble" : 1,
					"bubbleside" : 2,
					"fontface" : 1,
					"fontsize" : 18.0,
					"id" : "obj-43",
					"maxclass" : "comment",
					"numinlets" : 1,
					"numoutlets" : 0,
					"patching_rect" : [ 219.5, 154.333313, 66.5, 46.0 ],
					"presentation" : 1,
					"presentation_rect" : [ 46.016632, 88.497803, 66.5, 46.0 ],
					"style" : "",
					"text" : "ポンプ",
					"textjustification" : 1
				}

			}
, 			{
				"box" : 				{
					"bgcolor" : [ 1.0, 0.0, 0.0, 1.0 ],
					"fontface" : 1,
					"fontname" : "Arial",
					"fontsize" : 16.0,
					"id" : "obj-267",
					"maxclass" : "comment",
					"numinlets" : 1,
					"numoutlets" : 0,
					"patching_rect" : [ 291.0, 870.333252, 42.0, 24.0 ],
					"presentation" : 1,
					"presentation_rect" : [ 117.516632, 809.497803, 42.0, 24.0 ],
					"style" : "",
					"text" : "P07",
					"textcolor" : [ 1.0, 1.0, 1.0, 1.0 ],
					"textjustification" : 2
				}

			}
, 			{
				"box" : 				{
					"bgcolor" : [ 1.0, 0.0, 0.0, 1.0 ],
					"fontname" : "Arial",
					"fontsize" : 13.0,
					"id" : "obj-269",
					"maxclass" : "comment",
					"numinlets" : 1,
					"numoutlets" : 0,
					"patching_rect" : [ 238.0, 873.333252, 48.0, 21.0 ],
					"presentation" : 1,
					"presentation_rect" : [ 64.516632, 810.997803, 48.0, 21.0 ],
					"style" : "",
					"text" : "ON",
					"textcolor" : [ 1.0, 1.0, 1.0, 1.0 ]
				}

			}
, 			{
				"box" : 				{
					"bgcolor" : [ 1.0, 0.0, 0.0, 1.0 ],
					"fontname" : "Arial",
					"fontsize" : 13.0,
					"id" : "obj-270",
					"maxclass" : "comment",
					"numinlets" : 1,
					"numoutlets" : 0,
					"patching_rect" : [ 238.0, 843.333252, 48.0, 21.0 ],
					"presentation" : 1,
					"presentation_rect" : [ 64.516632, 781.997742, 48.0, 21.0 ],
					"style" : "",
					"text" : "OFF",
					"textcolor" : [ 1.0, 1.0, 1.0, 1.0 ]
				}

			}
, 			{
				"box" : 				{
					"activecolor" : [ 1.0, 1.0, 1.0, 1.0 ],
					"bgcolor" : [ 1.0, 0.0, 0.0, 1.0 ],
					"disabled" : [ 0, 0 ],
					"flagmode" : 1,
					"id" : "obj-271",
					"itemtype" : 0,
					"maxclass" : "radiogroup",
					"numinlets" : 1,
					"numoutlets" : 1,
					"offset" : 29,
					"outlettype" : [ "" ],
					"parameter_enable" : 0,
					"patching_rect" : [ 219.5, 843.333252, 120.5, 60.0 ],
					"presentation" : 1,
					"presentation_rect" : [ 46.016632, 782.497742, 120.5, 60.0 ],
					"size" : 2,
					"style" : "",
					"value" : 1
				}

			}
, 			{
				"box" : 				{
					"bgcolor" : [ 1.0, 0.0, 0.0, 1.0 ],
					"fontface" : 1,
					"fontname" : "Arial",
					"fontsize" : 16.0,
					"id" : "obj-275",
					"maxclass" : "comment",
					"numinlets" : 1,
					"numoutlets" : 0,
					"patching_rect" : [ 291.0, 765.333313, 42.0, 24.0 ],
					"presentation" : 1,
					"presentation_rect" : [ 117.516632, 704.497803, 42.0, 24.0 ],
					"style" : "",
					"text" : "P06",
					"textcolor" : [ 1.0, 1.0, 1.0, 1.0 ],
					"textjustification" : 2
				}

			}
, 			{
				"box" : 				{
					"bgcolor" : [ 1.0, 0.0, 0.0, 1.0 ],
					"fontname" : "Arial",
					"fontsize" : 13.0,
					"id" : "obj-277",
					"maxclass" : "comment",
					"numinlets" : 1,
					"numoutlets" : 0,
					"patching_rect" : [ 238.0, 768.333313, 48.0, 21.0 ],
					"presentation" : 1,
					"presentation_rect" : [ 64.516632, 707.497803, 48.0, 21.0 ],
					"style" : "",
					"text" : "ON",
					"textcolor" : [ 1.0, 1.0, 1.0, 1.0 ]
				}

			}
, 			{
				"box" : 				{
					"bgcolor" : [ 1.0, 0.0, 0.0, 1.0 ],
					"fontname" : "Arial",
					"fontsize" : 13.0,
					"id" : "obj-278",
					"maxclass" : "comment",
					"numinlets" : 1,
					"numoutlets" : 0,
					"patching_rect" : [ 238.0, 738.333313, 48.0, 21.0 ],
					"presentation" : 1,
					"presentation_rect" : [ 64.516632, 677.497803, 48.0, 21.0 ],
					"style" : "",
					"text" : "OFF",
					"textcolor" : [ 1.0, 1.0, 1.0, 1.0 ]
				}

			}
, 			{
				"box" : 				{
					"activecolor" : [ 1.0, 1.0, 1.0, 1.0 ],
					"bgcolor" : [ 1.0, 0.0, 0.0, 1.0 ],
					"disabled" : [ 0, 0 ],
					"flagmode" : 1,
					"id" : "obj-279",
					"itemtype" : 0,
					"maxclass" : "radiogroup",
					"numinlets" : 1,
					"numoutlets" : 1,
					"offset" : 29,
					"outlettype" : [ "" ],
					"parameter_enable" : 0,
					"patching_rect" : [ 219.5, 738.333313, 120.5, 60.0 ],
					"presentation" : 1,
					"presentation_rect" : [ 46.016632, 677.497803, 120.5, 60.0 ],
					"size" : 2,
					"style" : "",
					"value" : 1
				}

			}
, 			{
				"box" : 				{
					"bgcolor" : [ 1.0, 0.0, 0.0, 1.0 ],
					"fontface" : 1,
					"fontname" : "Arial",
					"fontsize" : 16.0,
					"id" : "obj-283",
					"maxclass" : "comment",
					"numinlets" : 1,
					"numoutlets" : 0,
					"patching_rect" : [ 291.0, 660.333313, 42.0, 24.0 ],
					"presentation" : 1,
					"presentation_rect" : [ 117.516632, 599.497803, 42.0, 24.0 ],
					"style" : "",
					"text" : "P05",
					"textcolor" : [ 1.0, 1.0, 1.0, 1.0 ],
					"textjustification" : 2
				}

			}
, 			{
				"box" : 				{
					"bgcolor" : [ 1.0, 0.0, 0.0, 1.0 ],
					"fontname" : "Arial",
					"fontsize" : 13.0,
					"id" : "obj-285",
					"maxclass" : "comment",
					"numinlets" : 1,
					"numoutlets" : 0,
					"patching_rect" : [ 238.0, 663.333313, 48.0, 21.0 ],
					"presentation" : 1,
					"presentation_rect" : [ 64.516632, 602.497803, 48.0, 21.0 ],
					"style" : "",
					"text" : "ON",
					"textcolor" : [ 1.0, 1.0, 1.0, 1.0 ]
				}

			}
, 			{
				"box" : 				{
					"bgcolor" : [ 1.0, 0.0, 0.0, 1.0 ],
					"fontname" : "Arial",
					"fontsize" : 13.0,
					"id" : "obj-286",
					"maxclass" : "comment",
					"numinlets" : 1,
					"numoutlets" : 0,
					"patching_rect" : [ 238.0, 633.333313, 48.0, 21.0 ],
					"presentation" : 1,
					"presentation_rect" : [ 64.516632, 572.497803, 48.0, 21.0 ],
					"style" : "",
					"text" : "OFF",
					"textcolor" : [ 1.0, 1.0, 1.0, 1.0 ]
				}

			}
, 			{
				"box" : 				{
					"activecolor" : [ 1.0, 1.0, 1.0, 1.0 ],
					"bgcolor" : [ 1.0, 0.0, 0.0, 1.0 ],
					"disabled" : [ 0, 0 ],
					"flagmode" : 1,
					"id" : "obj-287",
					"itemtype" : 0,
					"maxclass" : "radiogroup",
					"numinlets" : 1,
					"numoutlets" : 1,
					"offset" : 29,
					"outlettype" : [ "" ],
					"parameter_enable" : 0,
					"patching_rect" : [ 219.5, 633.333313, 120.5, 60.0 ],
					"presentation" : 1,
					"presentation_rect" : [ 46.016632, 572.497803, 120.5, 60.0 ],
					"size" : 2,
					"style" : "",
					"value" : 1
				}

			}
, 			{
				"box" : 				{
					"bgcolor" : [ 1.0, 0.0, 0.0, 1.0 ],
					"fontface" : 1,
					"fontname" : "Arial",
					"fontsize" : 16.0,
					"id" : "obj-291",
					"maxclass" : "comment",
					"numinlets" : 1,
					"numoutlets" : 0,
					"patching_rect" : [ 291.0, 555.333313, 42.0, 24.0 ],
					"presentation" : 1,
					"presentation_rect" : [ 117.516632, 494.497803, 42.0, 24.0 ],
					"style" : "",
					"text" : "P04",
					"textcolor" : [ 1.0, 1.0, 1.0, 1.0 ],
					"textjustification" : 2
				}

			}
, 			{
				"box" : 				{
					"bgcolor" : [ 1.0, 0.0, 0.0, 1.0 ],
					"fontname" : "Arial",
					"fontsize" : 13.0,
					"id" : "obj-293",
					"maxclass" : "comment",
					"numinlets" : 1,
					"numoutlets" : 0,
					"patching_rect" : [ 238.0, 558.333313, 48.0, 21.0 ],
					"presentation" : 1,
					"presentation_rect" : [ 64.516632, 497.497803, 48.0, 21.0 ],
					"style" : "",
					"text" : "ON",
					"textcolor" : [ 1.0, 1.0, 1.0, 1.0 ]
				}

			}
, 			{
				"box" : 				{
					"bgcolor" : [ 1.0, 0.0, 0.0, 1.0 ],
					"fontname" : "Arial",
					"fontsize" : 13.0,
					"id" : "obj-294",
					"maxclass" : "comment",
					"numinlets" : 1,
					"numoutlets" : 0,
					"patching_rect" : [ 238.0, 528.333313, 48.0, 21.0 ],
					"presentation" : 1,
					"presentation_rect" : [ 64.516632, 467.497803, 48.0, 21.0 ],
					"style" : "",
					"text" : "OFF",
					"textcolor" : [ 1.0, 1.0, 1.0, 1.0 ]
				}

			}
, 			{
				"box" : 				{
					"activecolor" : [ 1.0, 1.0, 1.0, 1.0 ],
					"bgcolor" : [ 1.0, 0.0, 0.0, 1.0 ],
					"disabled" : [ 0, 0 ],
					"flagmode" : 1,
					"id" : "obj-295",
					"itemtype" : 0,
					"maxclass" : "radiogroup",
					"numinlets" : 1,
					"numoutlets" : 1,
					"offset" : 29,
					"outlettype" : [ "" ],
					"parameter_enable" : 0,
					"patching_rect" : [ 219.5, 528.333313, 120.5, 60.0 ],
					"presentation" : 1,
					"presentation_rect" : [ 46.016632, 467.497803, 120.5, 60.0 ],
					"size" : 2,
					"style" : "",
					"value" : 1
				}

			}
, 			{
				"box" : 				{
					"bgcolor" : [ 1.0, 0.0, 0.0, 1.0 ],
					"fontface" : 1,
					"fontname" : "Arial",
					"fontsize" : 16.0,
					"id" : "obj-299",
					"maxclass" : "comment",
					"numinlets" : 1,
					"numoutlets" : 0,
					"patching_rect" : [ 293.0, 450.333313, 41.0, 24.0 ],
					"presentation" : 1,
					"presentation_rect" : [ 117.516632, 389.497803, 42.0, 24.0 ],
					"style" : "",
					"text" : "P03\n",
					"textcolor" : [ 1.0, 1.0, 1.0, 1.0 ],
					"textjustification" : 2
				}

			}
, 			{
				"box" : 				{
					"bgcolor" : [ 1.0, 0.0, 0.0, 1.0 ],
					"fontname" : "Arial",
					"fontsize" : 13.0,
					"id" : "obj-301",
					"maxclass" : "comment",
					"numinlets" : 1,
					"numoutlets" : 0,
					"patching_rect" : [ 238.0, 453.333313, 48.0, 21.0 ],
					"presentation" : 1,
					"presentation_rect" : [ 64.516632, 392.497803, 48.0, 21.0 ],
					"style" : "",
					"text" : "ON",
					"textcolor" : [ 1.0, 1.0, 1.0, 1.0 ]
				}

			}
, 			{
				"box" : 				{
					"bgcolor" : [ 1.0, 0.0, 0.0, 1.0 ],
					"fontname" : "Arial",
					"fontsize" : 13.0,
					"id" : "obj-302",
					"maxclass" : "comment",
					"numinlets" : 1,
					"numoutlets" : 0,
					"patching_rect" : [ 238.0, 423.333313, 48.0, 21.0 ],
					"presentation" : 1,
					"presentation_rect" : [ 64.516632, 362.497803, 48.0, 21.0 ],
					"style" : "",
					"text" : "OFF",
					"textcolor" : [ 1.0, 1.0, 1.0, 1.0 ]
				}

			}
, 			{
				"box" : 				{
					"activecolor" : [ 1.0, 1.0, 1.0, 1.0 ],
					"bgcolor" : [ 1.0, 0.0, 0.0, 1.0 ],
					"disabled" : [ 0, 0 ],
					"flagmode" : 1,
					"id" : "obj-303",
					"itemtype" : 0,
					"maxclass" : "radiogroup",
					"numinlets" : 1,
					"numoutlets" : 1,
					"offset" : 29,
					"outlettype" : [ "" ],
					"parameter_enable" : 0,
					"patching_rect" : [ 219.5, 423.333313, 120.5, 60.0 ],
					"presentation" : 1,
					"presentation_rect" : [ 46.016632, 362.497803, 120.5, 60.0 ],
					"size" : 2,
					"style" : "",
					"value" : 1
				}

			}
, 			{
				"box" : 				{
					"bgcolor" : [ 1.0, 0.0, 0.0, 1.0 ],
					"fontface" : 1,
					"fontname" : "Arial",
					"fontsize" : 16.0,
					"id" : "obj-307",
					"maxclass" : "comment",
					"numinlets" : 1,
					"numoutlets" : 0,
					"patching_rect" : [ 291.0, 345.333313, 42.0, 24.0 ],
					"presentation" : 1,
					"presentation_rect" : [ 117.516632, 284.497803, 42.0, 24.0 ],
					"style" : "",
					"text" : "P02",
					"textcolor" : [ 1.0, 1.0, 1.0, 1.0 ],
					"textjustification" : 2
				}

			}
, 			{
				"box" : 				{
					"bgcolor" : [ 1.0, 0.0, 0.0, 1.0 ],
					"fontname" : "Arial",
					"fontsize" : 13.0,
					"id" : "obj-309",
					"maxclass" : "comment",
					"numinlets" : 1,
					"numoutlets" : 0,
					"patching_rect" : [ 238.0, 348.333313, 48.0, 21.0 ],
					"presentation" : 1,
					"presentation_rect" : [ 64.516632, 287.497803, 48.0, 21.0 ],
					"style" : "",
					"text" : "ON",
					"textcolor" : [ 1.0, 1.0, 1.0, 1.0 ]
				}

			}
, 			{
				"box" : 				{
					"bgcolor" : [ 1.0, 0.0, 0.0, 1.0 ],
					"fontname" : "Arial",
					"fontsize" : 13.0,
					"id" : "obj-310",
					"maxclass" : "comment",
					"numinlets" : 1,
					"numoutlets" : 0,
					"patching_rect" : [ 238.0, 318.333313, 48.0, 21.0 ],
					"presentation" : 1,
					"presentation_rect" : [ 64.516632, 257.497803, 48.0, 21.0 ],
					"style" : "",
					"text" : "OFF",
					"textcolor" : [ 1.0, 1.0, 1.0, 1.0 ]
				}

			}
, 			{
				"box" : 				{
					"activecolor" : [ 1.0, 1.0, 1.0, 1.0 ],
					"bgcolor" : [ 1.0, 0.0, 0.0, 1.0 ],
					"disabled" : [ 0, 0 ],
					"flagmode" : 1,
					"id" : "obj-311",
					"itemtype" : 0,
					"maxclass" : "radiogroup",
					"numinlets" : 1,
					"numoutlets" : 1,
					"offset" : 29,
					"outlettype" : [ "" ],
					"parameter_enable" : 0,
					"patching_rect" : [ 219.5, 318.333313, 120.5, 60.0 ],
					"presentation" : 1,
					"presentation_rect" : [ 46.016632, 257.497803, 120.5, 60.0 ],
					"size" : 2,
					"style" : "",
					"value" : 1
				}

			}
, 			{
				"box" : 				{
					"bgcolor" : [ 1.0, 0.0, 0.0, 1.0 ],
					"fontface" : 1,
					"fontname" : "Arial",
					"fontsize" : 16.0,
					"id" : "obj-315",
					"maxclass" : "comment",
					"numinlets" : 1,
					"numoutlets" : 0,
					"patching_rect" : [ 291.0, 240.333313, 42.0, 24.0 ],
					"presentation" : 1,
					"presentation_rect" : [ 117.516632, 179.497803, 42.0, 24.0 ],
					"style" : "",
					"text" : "P01",
					"textcolor" : [ 1.0, 1.0, 1.0, 1.0 ],
					"textjustification" : 2
				}

			}
, 			{
				"box" : 				{
					"bgcolor" : [ 1.0, 0.0, 0.0, 1.0 ],
					"fontname" : "Arial",
					"fontsize" : 13.0,
					"id" : "obj-319",
					"maxclass" : "comment",
					"numinlets" : 1,
					"numoutlets" : 0,
					"patching_rect" : [ 238.0, 243.333313, 48.0, 21.0 ],
					"presentation" : 1,
					"presentation_rect" : [ 64.516632, 182.497803, 48.0, 21.0 ],
					"style" : "",
					"text" : "ON",
					"textcolor" : [ 1.0, 1.0, 1.0, 1.0 ]
				}

			}
, 			{
				"box" : 				{
					"bgcolor" : [ 1.0, 0.0, 0.0, 1.0 ],
					"fontname" : "Arial",
					"fontsize" : 13.0,
					"id" : "obj-320",
					"maxclass" : "comment",
					"numinlets" : 1,
					"numoutlets" : 0,
					"patching_rect" : [ 238.0, 213.333313, 48.0, 21.0 ],
					"presentation" : 1,
					"presentation_rect" : [ 64.516632, 152.497803, 48.0, 21.0 ],
					"style" : "",
					"text" : "OFF",
					"textcolor" : [ 1.0, 1.0, 1.0, 1.0 ]
				}

			}
, 			{
				"box" : 				{
					"activecolor" : [ 1.0, 1.0, 1.0, 1.0 ],
					"bgcolor" : [ 1.0, 0.0, 0.0, 1.0 ],
					"disabled" : [ 0, 0 ],
					"flagmode" : 1,
					"id" : "obj-321",
					"itemtype" : 0,
					"maxclass" : "radiogroup",
					"numinlets" : 1,
					"numoutlets" : 1,
					"offset" : 29,
					"outlettype" : [ "" ],
					"parameter_enable" : 0,
					"patching_rect" : [ 219.5, 213.333313, 120.5, 60.0 ],
					"presentation" : 1,
					"presentation_rect" : [ 46.016632, 152.497803, 120.5, 60.0 ],
					"size" : 2,
					"style" : "",
					"value" : 1
				}

			}
, 			{
				"box" : 				{
					"bgmode" : 0,
					"border" : 0,
					"clickthrough" : 0,
					"enablehscroll" : 0,
					"enablevscroll" : 0,
					"id" : "obj-12",
					"lockeddragscroll" : 0,
					"maxclass" : "bpatcher",
					"name" : "valveUI00.maxpat",
					"numinlets" : 0,
					"numoutlets" : 0,
					"offset" : [ 0.0, 0.0 ],
					"patching_rect" : [ 458.099976, 202.333313, 274.0, 1096.0 ],
					"presentation" : 1,
					"presentation_rect" : [ 203.099976, 6.333313, 264.0, 1112.0 ],
					"varname" : "valveUI00",
					"viewvisibility" : 1
				}

			}
, 			{
				"box" : 				{
					"bgmode" : 0,
					"border" : 0,
					"clickthrough" : 0,
					"enablehscroll" : 0,
					"enablevscroll" : 0,
					"id" : "obj-13",
					"lockeddragscroll" : 0,
					"maxclass" : "bpatcher",
					"name" : "valveUI01.maxpat",
					"numinlets" : 0,
					"numoutlets" : 0,
					"offset" : [ 0.0, 0.0 ],
					"patching_rect" : [ 732.099976, 202.333313, 272.666656, 1096.0 ],
					"presentation" : 1,
					"presentation_rect" : [ 450.099976, 6.333313, 265.0, 1090.0 ],
					"varname" : "valveUI01",
					"viewvisibility" : 1
				}

			}
 ],
		"lines" : [ 			{
				"patchline" : 				{
					"destination" : [ "obj-4", 0 ],
					"midpoints" : [ 155.599976, 1163.350098, 1731.116699, 1163.350098 ],
					"source" : [ "obj-15", 1 ]
				}

			}
, 			{
				"patchline" : 				{
					"destination" : [ "obj-271", 0 ],
					"midpoints" : [ 198.5, 828.0, 229.0, 828.0 ],
					"order" : 0,
					"source" : [ "obj-26", 0 ]
				}

			}
, 			{
				"patchline" : 				{
					"destination" : [ "obj-279", 0 ],
					"midpoints" : [ 198.5, 723.0, 229.0, 723.0 ],
					"order" : 1,
					"source" : [ "obj-26", 0 ]
				}

			}
, 			{
				"patchline" : 				{
					"destination" : [ "obj-287", 0 ],
					"midpoints" : [ 198.5, 618.0, 229.0, 618.0 ],
					"order" : 2,
					"source" : [ "obj-26", 0 ]
				}

			}
, 			{
				"patchline" : 				{
					"destination" : [ "obj-295", 0 ],
					"midpoints" : [ 198.5, 513.0, 229.0, 513.0 ],
					"order" : 3,
					"source" : [ "obj-26", 0 ]
				}

			}
, 			{
				"patchline" : 				{
					"destination" : [ "obj-303", 0 ],
					"midpoints" : [ 198.5, 408.0, 229.0, 408.0 ],
					"order" : 4,
					"source" : [ "obj-26", 0 ]
				}

			}
, 			{
				"patchline" : 				{
					"destination" : [ "obj-311", 0 ],
					"midpoints" : [ 198.5, 303.0, 229.0, 303.0 ],
					"order" : 5,
					"source" : [ "obj-26", 0 ]
				}

			}
, 			{
				"patchline" : 				{
					"destination" : [ "obj-321", 0 ],
					"midpoints" : [ 198.5, 240.0, 204.0, 240.0, 204.0, 207.0, 229.0, 207.0 ],
					"order" : 6,
					"source" : [ "obj-26", 0 ]
				}

			}
, 			{
				"patchline" : 				{
					"destination" : [ "obj-48", 6 ],
					"midpoints" : [ 229.0, 909.399963, 192.999969, 909.399963 ],
					"source" : [ "obj-271", 0 ]
				}

			}
, 			{
				"patchline" : 				{
					"destination" : [ "obj-48", 5 ],
					"midpoints" : [ 229.0, 856.900024, 176.766647, 856.900024 ],
					"source" : [ "obj-279", 0 ]
				}

			}
, 			{
				"patchline" : 				{
					"destination" : [ "obj-48", 4 ],
					"midpoints" : [ 229.0, 804.400024, 160.53331, 804.400024 ],
					"source" : [ "obj-287", 0 ]
				}

			}
, 			{
				"patchline" : 				{
					"destination" : [ "obj-48", 3 ],
					"midpoints" : [ 229.0, 751.900024, 144.299973, 751.900024 ],
					"source" : [ "obj-295", 0 ]
				}

			}
, 			{
				"patchline" : 				{
					"destination" : [ "obj-48", 2 ],
					"midpoints" : [ 229.0, 699.400024, 128.06665, 699.400024 ],
					"source" : [ "obj-303", 0 ]
				}

			}
, 			{
				"patchline" : 				{
					"destination" : [ "obj-48", 1 ],
					"midpoints" : [ 229.0, 646.900024, 111.833313, 646.900024 ],
					"source" : [ "obj-311", 0 ]
				}

			}
, 			{
				"patchline" : 				{
					"destination" : [ "obj-48", 0 ],
					"midpoints" : [ 229.0, 594.400024, 95.599976, 594.400024 ],
					"source" : [ "obj-321", 0 ]
				}

			}
, 			{
				"patchline" : 				{
					"destination" : [ "obj-26", 0 ],
					"midpoints" : [ 1783.116699, 612.833374, 1568.372192, 612.833374, 1568.372192, 148.333313, 198.5, 148.333313 ],
					"order" : 1,
					"source" : [ "obj-34", 1 ]
				}

			}
, 			{
				"patchline" : 				{
					"destination" : [ "obj-4", 1 ],
					"order" : 0,
					"source" : [ "obj-34", 1 ]
				}

			}
, 			{
				"patchline" : 				{
					"destination" : [ "obj-15", 0 ],
					"midpoints" : [ 1783.116699, 1311.500122, 186.025024, 1311.500122, 186.025024, 1168.533325, 95.599976, 1168.533325 ],
					"source" : [ "obj-4", 1 ]
				}

			}
, 			{
				"patchline" : 				{
					"destination" : [ "obj-271", 0 ],
					"midpoints" : [ 1731.116699, 1311.166748, 1569.05835, 1311.166748, 1569.05835, 832.333252, 229.0, 832.333252 ],
					"order" : 0,
					"source" : [ "obj-4", 0 ]
				}

			}
, 			{
				"patchline" : 				{
					"destination" : [ "obj-279", 0 ],
					"midpoints" : [ 1731.116699, 1312.166748, 1567.05835, 1312.166748, 1567.05835, 727.333313, 229.0, 727.333313 ],
					"order" : 1,
					"source" : [ "obj-4", 0 ]
				}

			}
, 			{
				"patchline" : 				{
					"destination" : [ "obj-287", 0 ],
					"midpoints" : [ 1731.116699, 1311.166748, 1569.05835, 1311.166748, 1569.05835, 622.333313, 229.0, 622.333313 ],
					"order" : 2,
					"source" : [ "obj-4", 0 ]
				}

			}
, 			{
				"patchline" : 				{
					"destination" : [ "obj-295", 0 ],
					"midpoints" : [ 1731.116699, 1311.166748, 1567.05835, 1311.166748, 1567.05835, 517.333313, 229.0, 517.333313 ],
					"order" : 3,
					"source" : [ "obj-4", 0 ]
				}

			}
, 			{
				"patchline" : 				{
					"destination" : [ "obj-303", 0 ],
					"midpoints" : [ 1731.116699, 1312.500122, 1570.05835, 1312.500122, 1570.05835, 412.333313, 229.0, 412.333313 ],
					"order" : 4,
					"source" : [ "obj-4", 0 ]
				}

			}
, 			{
				"patchline" : 				{
					"destination" : [ "obj-311", 0 ],
					"midpoints" : [ 1731.116699, 1311.500122, 1570.724976, 1311.500122, 1570.724976, 307.333313, 229.0, 307.333313 ],
					"order" : 5,
					"source" : [ "obj-4", 0 ]
				}

			}
, 			{
				"patchline" : 				{
					"destination" : [ "obj-321", 0 ],
					"midpoints" : [ 1731.116699, 1312.833374, 1568.05835, 1312.833374, 1568.05835, 202.333313, 229.0, 202.333313 ],
					"order" : 6,
					"source" : [ "obj-4", 0 ]
				}

			}
, 			{
				"patchline" : 				{
					"destination" : [ "obj-34", 0 ],
					"midpoints" : [ 1835.116699, 1282.166748, 1934.291626, 1282.166748, 1934.291626, 485.333313, 1734.338867, 485.333313 ],
					"source" : [ "obj-4", 2 ]
				}

			}
, 			{
				"patchline" : 				{
					"destination" : [ "obj-15", 0 ],
					"midpoints" : [ 95.599976, 1063.166748, 95.599976, 1063.166748 ],
					"source" : [ "obj-48", 0 ]
				}

			}
, 			{
				"patchline" : 				{
					"destination" : [ "obj-9", 0 ],
					"source" : [ "obj-49", 0 ]
				}

			}
, 			{
				"patchline" : 				{
					"destination" : [ "obj-15", 0 ],
					"midpoints" : [ 349.599976, 1193.533203, 310.93335, 1193.533203, 310.93335, 1168.533325, 95.599976, 1168.533325 ],
					"source" : [ "obj-58", 0 ]
				}

			}
, 			{
				"patchline" : 				{
					"destination" : [ "obj-15", 0 ],
					"midpoints" : [ 349.599976, 1230.533081, 310.833374, 1230.533081, 310.833374, 1168.533325, 95.599976, 1168.533325 ],
					"source" : [ "obj-64", 0 ]
				}

			}
, 			{
				"patchline" : 				{
					"destination" : [ "obj-15", 0 ],
					"midpoints" : [ 349.599976, 1267.533081, 310.833374, 1267.533081, 310.833374, 1168.533325, 95.599976, 1168.533325 ],
					"source" : [ "obj-65", 0 ]
				}

			}
, 			{
				"patchline" : 				{
					"destination" : [ "obj-15", 0 ],
					"midpoints" : [ 349.599976, 1308.333252, 310.833374, 1308.333252, 310.833374, 1168.533325, 95.599976, 1168.533325 ],
					"source" : [ "obj-66", 0 ]
				}

			}
, 			{
				"patchline" : 				{
					"destination" : [ "obj-4", 2 ],
					"source" : [ "obj-9", 0 ]
				}

			}
 ],
		"dependency_cache" : [ 			{
				"name" : "valveUI01.maxpat",
				"bootpath" : "~/Documents/Max 7/Projects/FoamController/FoamController/patchers",
				"patcherrelativepath" : ".",
				"type" : "JSON",
				"implicit" : 1
			}
, 			{
				"name" : "valveUI00.maxpat",
				"bootpath" : "~/Documents/Max 7/Projects/FoamController/FoamController/patchers",
				"patcherrelativepath" : ".",
				"type" : "JSON",
				"implicit" : 1
			}
, 			{
				"name" : "pumps.maxpat",
				"bootpath" : "~/Documents/Max 7/Projects/FoamController/FoamController/patchers",
				"patcherrelativepath" : ".",
				"type" : "JSON",
				"implicit" : 1
			}
, 			{
				"name" : "solenoidValves00.maxpat",
				"bootpath" : "~/Documents/Max 7/Projects/FoamController/FoamController/patchers",
				"patcherrelativepath" : ".",
				"type" : "JSON",
				"implicit" : 1
			}
, 			{
				"name" : "solenoidValves01.maxpat",
				"bootpath" : "~/Documents/Max 7/Projects/FoamController/FoamController/patchers",
				"patcherrelativepath" : ".",
				"type" : "JSON",
				"implicit" : 1
			}
, 			{
				"name" : "solenoidValves02.maxpat",
				"bootpath" : "~/Documents/Max 7/Projects/FoamController/FoamController/patchers",
				"patcherrelativepath" : ".",
				"type" : "JSON",
				"implicit" : 1
			}
, 			{
				"name" : "solenoidValves03.maxpat",
				"bootpath" : "~/Documents/Max 7/Projects/FoamController/FoamController/patchers",
				"patcherrelativepath" : ".",
				"type" : "JSON",
				"implicit" : 1
			}
, 			{
				"name" : "valveUI02.maxpat",
				"bootpath" : "~/Documents/Max 7/Projects/FoamController/FoamController/patchers",
				"patcherrelativepath" : ".",
				"type" : "JSON",
				"implicit" : 1
			}
, 			{
				"name" : "valveUI03.maxpat",
				"bootpath" : "~/Documents/Max 7/Projects/FoamController/FoamController/patchers",
				"patcherrelativepath" : ".",
				"type" : "JSON",
				"implicit" : 1
			}
, 			{
				"name" : "timeManager.maxpat",
				"bootpath" : "~/Documents/Max 7/Projects/FoamController/FoamController/patchers",
				"patcherrelativepath" : ".",
				"type" : "JSON",
				"implicit" : 1
			}
 ],
		"autosave" : 0,
		"styles" : [ 			{
				"name" : "AudioStatus_Menu",
				"default" : 				{
					"bgfillcolor" : 					{
						"type" : "color",
						"color" : [ 0.294118, 0.313726, 0.337255, 1 ],
						"color1" : [ 0.454902, 0.462745, 0.482353, 0.0 ],
						"color2" : [ 0.290196, 0.309804, 0.301961, 1.0 ],
						"angle" : 270.0,
						"proportion" : 0.39,
						"autogradient" : 0
					}

				}
,
				"parentstyle" : "",
				"multi" : 0
			}
, 			{
				"name" : "Luca",
				"default" : 				{
					"bgfillcolor" : 					{
						"type" : "gradient",
						"color" : [ 0.290196, 0.309804, 0.301961, 1.0 ],
						"color1" : [ 0.862745, 0.870588, 0.878431, 1.0 ],
						"color2" : [ 0.65098, 0.666667, 0.662745, 1.0 ],
						"angle" : 270.0,
						"proportion" : 0.39,
						"autogradient" : 0
					}
,
					"accentcolor" : [ 0.32549, 0.345098, 0.372549, 1.0 ],
					"fontname" : [ "Open Sans Semibold" ],
					"elementcolor" : [ 0.786675, 0.801885, 0.845022, 1.0 ],
					"textcolor_inverse" : [ 0.239216, 0.254902, 0.278431, 1.0 ],
					"bgcolor" : [ 0.904179, 0.895477, 0.842975, 0.56 ],
					"selectioncolor" : [ 0.720698, 0.16723, 0.080014, 1.0 ],
					"color" : [ 0.475135, 0.293895, 0.251069, 1.0 ]
				}
,
				"parentstyle" : "",
				"multi" : 0
			}
, 			{
				"name" : "Tomoya",
				"default" : 				{
					"bgfillcolor" : 					{
						"type" : "color",
						"color" : [ 0.870588, 0.415686, 0.062745, 1.0 ],
						"color1" : [ 0.952941, 0.564706, 0.098039, 1.0 ],
						"color2" : [ 0.960784, 0.827451, 0.156863, 1.0 ],
						"angle" : 270.0,
						"proportion" : 0.39,
						"autogradient" : 0
					}
,
					"patchlinecolor" : [ 0.317647, 0.654902, 0.976471, 0.9 ],
					"fontname" : [ "Lucida Grande" ],
					"elementcolor" : [ 0.786675, 0.801885, 0.845022, 1.0 ],
					"textcolor" : [ 0.011765, 0.396078, 0.752941, 1.0 ],
					"textcolor_inverse" : [ 0.541176, 0.815686, 0.913725, 1.0 ],
					"bgcolor" : [ 0.285714, 0.256629, 0.217237, 1.0 ],
					"selectioncolor" : [ 0.905882, 0.797584, 0.522994, 1.0 ],
					"color" : [ 0.941176, 0.690196, 0.196078, 1.0 ]
				}
,
				"parentstyle" : "",
				"multi" : 0
			}
, 			{
				"name" : "new-default15",
				"default" : 				{
					"fontsize" : [ 20.0 ]
				}
,
				"parentstyle" : "default",
				"multi" : 0
			}
, 			{
				"name" : "newobjBlue-1",
				"default" : 				{
					"accentcolor" : [ 0.317647, 0.654902, 0.976471, 1.0 ]
				}
,
				"parentstyle" : "",
				"multi" : 0
			}
, 			{
				"name" : "newobjYellow-1",
				"default" : 				{
					"fontsize" : [ 12.059008 ],
					"accentcolor" : [ 0.82517, 0.78181, 0.059545, 1.0 ]
				}
,
				"parentstyle" : "",
				"multi" : 0
			}
 ]
	}

}
